<svg width="15" height="4" viewBox="0 0 15 4" fill="none" xmlns="http://www.w3.org/2000/svg">
<path d="M2.44289 3.16507C2.03389 3.16507 1.6839 3.02106 1.3919 2.73306C1.1039 2.44506 0.961903 2.09705 0.965903 1.68805C0.961903 1.28605 1.1039 0.943058 1.3919 0.659058C1.6839 0.371058 2.03389 0.227051 2.44289 0.227051C2.82989 0.227051 3.1699 0.371058 3.4659 0.659058C3.7649 0.943058 3.91691 1.28605 3.91991 1.68805C3.91691 1.96005 3.84489 2.20807 3.70489 2.43207C3.56789 2.65507 3.38791 2.83306 3.16491 2.96606C2.94491 3.09806 2.70489 3.16507 2.44289 3.16507ZM7.7809 3.16507C7.3719 3.16507 7.02191 3.02106 6.72991 2.73306C6.44191 2.44506 6.29988 2.09705 6.30388 1.68805C6.29988 1.28605 6.44191 0.943058 6.72991 0.659058C7.02191 0.371058 7.3719 0.227051 7.7809 0.227051C8.1679 0.227051 8.50888 0.371058 8.80388 0.659058C9.10288 0.943058 9.2549 1.28605 9.2589 1.68805C9.2549 1.96005 9.1829 2.20807 9.0429 2.43207C8.9059 2.65507 8.72589 2.83306 8.50289 2.96606C8.28289 3.09806 8.0429 3.16507 7.7809 3.16507ZM13.1189 3.16507C12.7099 3.16507 12.3599 3.02106 12.0679 2.73306C11.7799 2.44506 11.6379 2.09705 11.6419 1.68805C11.6379 1.28605 11.7799 0.943058 12.0679 0.659058C12.3599 0.371058 12.7099 0.227051 13.1189 0.227051C13.5059 0.227051 13.8469 0.371058 14.1419 0.659058C14.4409 0.943058 14.5929 1.28605 14.5969 1.68805C14.5929 1.96005 14.5209 2.20807 14.3809 2.43207C14.2439 2.65507 14.0649 2.83306 13.8409 2.96606C13.6209 3.09806 13.3809 3.16507 13.1189 3.16507Z" fill="#0D062D"/>
</svg>
