<svg width="22" height="22" viewBox="0 0 22 22" fill="none" xmlns="http://www.w3.org/2000/svg">
<path d="M16 17.4303H12L7.55005 20.3902C6.89005 20.8302 6 20.3603 6 19.5603V17.4303C3 17.4303 1 15.4303 1 12.4303V6.43018C1 3.43018 3 1.43018 6 1.43018H16C19 1.43018 21 3.43018 21 6.43018V12.4303C21 15.4303 19 17.4303 16 17.4303Z" stroke="#787486" stroke-width="1.5" stroke-miterlimit="10" stroke-linecap="round" stroke-linejoin="round"/>
<path d="M10.9999 10.3599V10.1499C10.9999 9.46986 11.4198 9.10986 11.8398 8.81986C12.2498 8.53986 12.6599 8.17986 12.6599 7.51986C12.6599 6.59986 11.9199 5.85986 10.9999 5.85986C10.0799 5.85986 9.33984 6.59986 9.33984 7.51986" stroke="#787486" stroke-width="1.5" stroke-linecap="round" stroke-linejoin="round"/>
</svg>
