<svg width="124" height="24" viewBox="0 0 124 24" fill="none" xmlns="http://www.w3.org/2000/svg">
<path d="M34.4347 19V4.45455H37.0696V10.6122H43.8097V4.45455H46.4517V19H43.8097V12.821H37.0696V19H34.4347ZM53.9624 19.2131C52.897 19.2131 51.9737 18.9787 51.1925 18.5099C50.4112 18.0412 49.8052 17.3854 49.3743 16.5426C48.9482 15.6998 48.7351 14.715 48.7351 13.5881C48.7351 12.4612 48.9482 11.474 49.3743 10.6264C49.8052 9.77888 50.4112 9.12074 51.1925 8.65199C51.9737 8.18324 52.897 7.94886 53.9624 7.94886C55.0277 7.94886 55.951 8.18324 56.7322 8.65199C57.5135 9.12074 58.1172 9.77888 58.5433 10.6264C58.9742 11.474 59.1896 12.4612 59.1896 13.5881C59.1896 14.715 58.9742 15.6998 58.5433 16.5426C58.1172 17.3854 57.5135 18.0412 56.7322 18.5099C55.951 18.9787 55.0277 19.2131 53.9624 19.2131ZM53.9766 17.1534C54.5542 17.1534 55.0372 16.9948 55.4254 16.6776C55.8137 16.3556 56.1025 15.9247 56.2919 15.3849C56.486 14.8452 56.5831 14.2438 56.5831 13.581C56.5831 12.9134 56.486 12.3097 56.2919 11.7699C56.1025 11.2254 55.8137 10.7921 55.4254 10.4702C55.0372 10.1482 54.5542 9.98722 53.9766 9.98722C53.3847 9.98722 52.8923 10.1482 52.4993 10.4702C52.111 10.7921 51.8198 11.2254 51.6257 11.7699C51.4363 12.3097 51.3416 12.9134 51.3416 13.581C51.3416 14.2438 51.4363 14.8452 51.6257 15.3849C51.8198 15.9247 52.111 16.3556 52.4993 16.6776C52.8923 16.9948 53.3847 17.1534 53.9766 17.1534ZM68.3249 14.4119V8.09091H70.896V19H68.4031V17.0611H68.2894C68.0432 17.6719 67.6384 18.1714 67.0749 18.5597C66.5162 18.9479 65.8273 19.142 65.0082 19.142C64.2932 19.142 63.6611 18.9834 63.1119 18.6662C62.5674 18.3442 62.1412 17.8778 61.8335 17.267C61.5257 16.6515 61.3718 15.9081 61.3718 15.0369V8.09091H63.9428V14.6392C63.9428 15.3305 64.1322 15.8797 64.511 16.2869C64.8898 16.6941 65.387 16.8977 66.0025 16.8977C66.3813 16.8977 66.7482 16.8054 67.1033 16.6207C67.4585 16.4361 67.7496 16.1615 67.9769 15.7969C68.2089 15.4276 68.3249 14.9659 68.3249 14.4119ZM73.5398 19V8.09091H76.0327V9.90909H76.1463C76.3452 9.27936 76.6861 8.79403 77.169 8.45312C77.6567 8.10748 78.2131 7.93466 78.8381 7.93466C78.9801 7.93466 79.1387 7.94176 79.3139 7.95597C79.4938 7.96544 79.643 7.98201 79.7614 8.00568V10.3707C79.6525 10.3329 79.4796 10.2997 79.2429 10.2713C79.0109 10.2382 78.786 10.2216 78.5682 10.2216C78.0994 10.2216 77.678 10.3234 77.304 10.527C76.9347 10.7259 76.6435 11.0028 76.4304 11.358C76.2173 11.7131 76.1108 12.1226 76.1108 12.5866V19H73.5398ZM81.5831 19V4.45455H84.218V10.6122H90.9581V4.45455H93.6001V19H90.9581V12.821H84.218V19H81.5831ZM96.3523 19V8.09091H98.9233V19H96.3523ZM97.6449 6.54261C97.2377 6.54261 96.8873 6.40767 96.5938 6.13778C96.3002 5.86316 96.1534 5.53409 96.1534 5.15057C96.1534 4.76231 96.3002 4.43324 96.5938 4.16335C96.8873 3.88873 97.2377 3.75142 97.6449 3.75142C98.0568 3.75142 98.4072 3.88873 98.696 4.16335C98.9896 4.43324 99.1364 4.76231 99.1364 5.15057C99.1364 5.53409 98.9896 5.86316 98.696 6.13778C98.4072 6.40767 98.0568 6.54261 97.6449 6.54261ZM111.311 8.09091L107.426 19H104.586L100.701 8.09091H103.442L105.949 16.1946H106.063L108.577 8.09091H111.311ZM117.549 19.2131C116.455 19.2131 115.511 18.9858 114.715 18.5312C113.924 18.072 113.316 17.4233 112.89 16.5852C112.464 15.7424 112.251 14.7505 112.251 13.6094C112.251 12.4872 112.464 11.5024 112.89 10.6548C113.321 9.80256 113.922 9.13968 114.694 8.66619C115.466 8.18797 116.372 7.94886 117.414 7.94886C118.086 7.94886 118.721 8.05777 119.317 8.27557C119.919 8.48864 120.449 8.82008 120.908 9.26989C121.372 9.7197 121.737 10.2926 122.002 10.9886C122.267 11.6799 122.4 12.5038 122.4 13.4602V14.2486H113.458V12.5156H119.935C119.931 12.0232 119.824 11.5852 119.616 11.2017C119.407 10.8134 119.116 10.508 118.742 10.2855C118.373 10.063 117.942 9.9517 117.45 9.9517C116.924 9.9517 116.462 10.0795 116.065 10.3352C115.667 10.5862 115.357 10.9176 115.134 11.3295C114.916 11.7367 114.805 12.1842 114.8 12.6719V14.1847C114.8 14.8191 114.916 15.3636 115.148 15.8182C115.38 16.268 115.705 16.6136 116.121 16.8551C116.538 17.0919 117.026 17.2102 117.585 17.2102C117.959 17.2102 118.297 17.1581 118.6 17.054C118.903 16.9451 119.166 16.7865 119.388 16.5781C119.611 16.3698 119.779 16.1117 119.893 15.804L122.293 16.0739C122.142 16.7083 121.853 17.2623 121.427 17.7358C121.005 18.2045 120.466 18.5691 119.808 18.8295C119.149 19.0852 118.397 19.2131 117.549 19.2131Z" fill="#0D062D"/>
<path opacity="0.6" d="M14 16C14 17.77 13.23 19.37 12 20.46C10.94 21.42 9.54 22 8 22C4.69 22 2 19.31 2 16C2 13.24 3.88 10.9 6.42 10.21C7.11 11.95 8.59 13.29 10.42 13.79C10.92 13.93 11.45 14 12 14C12.55 14 13.08 13.93 13.58 13.79C13.85 14.47 14 15.22 14 16Z" fill="#3069E5"/>
<path d="M18 8C18 8.78 17.85 9.53 17.58 10.21C16.89 11.95 15.41 13.29 13.58 13.79C13.08 13.93 12.55 14 12 14C11.45 14 10.92 13.93 10.42 13.79C8.59 13.29 7.11 11.95 6.42 10.21C6.15 9.53 6 8.78 6 8C6 4.69 8.69 2 12 2C15.31 2 18 4.69 18 8Z" fill="#5030E5"/>
<path opacity="0.4" d="M22 16C22 19.31 19.31 22 16 22C14.46 22 13.06 21.42 12 20.46C13.23 19.37 14 17.77 14 16C14 15.22 13.85 14.47 13.58 13.79C15.41 13.29 16.89 11.95 17.58 10.21C20.12 10.9 22 13.24 22 16Z" fill="#3094E5"/>
</svg>
