<svg width="206" height="234" viewBox="0 0 206 234" fill="none" xmlns="http://www.w3.org/2000/svg">
<path fill-rule="evenodd" clip-rule="evenodd" d="M136 34C136 15.775 121.225 1 103 1C84.775 1 70 15.775 70 34H16C7.163 34 0 41.163 0 50V218C0 226.837 7.163 234 16 234H190C198.837 234 206 226.837 206 218V50C206 41.163 198.837 34 190 34H136Z" fill="#F5F5F5"/>
<g filter="url(#filter0_f_693_175)">
<path d="M102.5 50C111.613 50 119 42.6127 119 33.5C119 24.3873 111.613 17 102.5 17C93.3873 17 86 24.3873 86 33.5C86 42.6127 93.3873 50 102.5 50Z" fill="#FCD64A" fill-opacity="0.7"/>
</g>
<path d="M182 174H24C21.7909 174 20 175.791 20 178V210C20 212.209 21.7909 214 24 214H182C184.209 214 186 212.209 186 210V178C186 175.791 184.209 174 182 174Z" fill="white"/>
<path d="M50.1121 200L47.2881 189.818H48.9041L50.8881 197.703H50.9821L53.0451 189.818H54.6461L56.7101 197.708H56.8041L58.7831 189.818H60.4031L57.5751 200H56.0281L53.8861 192.374H53.8061L51.6631 200H50.1121ZM61.2061 200V192.364H62.6431V193.577H62.7231C62.8621 193.166 63.1071 192.843 63.4581 192.607C63.8131 192.369 64.2141 192.249 64.6621 192.249C64.7541 192.249 64.8641 192.253 64.9901 192.259C65.1191 192.266 65.2201 192.274 65.2931 192.284V193.706C65.2331 193.689 65.1271 193.671 64.9751 193.651C64.8221 193.628 64.6701 193.616 64.5171 193.616C64.1661 193.616 63.8531 193.691 63.5781 193.84C63.3061 193.986 63.0911 194.19 62.9311 194.452C62.7721 194.71 62.6931 195.005 62.6931 195.337V200H61.2061ZM66.5791 200V192.364H68.0661V200H66.5791ZM67.3301 191.185C67.0721 191.185 66.8491 191.099 66.6641 190.927C66.4821 190.751 66.3901 190.542 66.3901 190.3C66.3901 190.055 66.4821 189.846 66.6641 189.674C66.8491 189.498 67.0721 189.411 67.3301 189.411C67.5891 189.411 67.8091 189.498 67.9911 189.674C68.1771 189.846 68.2701 190.055 68.2701 190.3C68.2701 190.542 68.1771 190.751 67.9911 190.927C67.8091 191.099 67.5891 191.185 67.3301 191.185ZM73.6301 192.364V193.557H69.4591V192.364H73.6301ZM70.5781 190.534H72.0641V197.758C72.0641 198.046 72.1071 198.263 72.1941 198.409C72.2801 198.552 72.3911 198.649 72.5271 198.702C72.6661 198.752 72.8171 198.777 72.9791 198.777C73.0981 198.777 73.2031 198.769 73.2921 198.752C73.3821 198.736 73.4511 198.722 73.5011 198.712L73.7701 199.94C73.6831 199.973 73.5611 200.007 73.4021 200.04C73.2431 200.076 73.0441 200.096 72.8051 200.099C72.4141 200.106 72.0491 200.036 71.7111 199.891C71.3731 199.745 71.1001 199.519 70.8911 199.214C70.6821 198.91 70.5781 198.527 70.5781 198.066V190.534ZM78.4841 200.154C77.7311 200.154 77.0841 199.993 76.5401 199.672C76.0001 199.347 75.5821 198.891 75.2871 198.305C74.9951 197.715 74.8501 197.024 74.8501 196.232C74.8501 195.449 74.9951 194.76 75.2871 194.163C75.5821 193.567 75.9931 193.101 76.5201 192.766C77.0501 192.432 77.6701 192.264 78.3791 192.264C78.8101 192.264 79.2281 192.335 79.6321 192.478C80.0371 192.621 80.4001 192.844 80.7211 193.149C81.0431 193.454 81.2961 193.85 81.4821 194.337C81.6671 194.821 81.7601 195.41 81.7601 196.102V196.629H75.6901V195.516H80.3031C80.3031 195.125 80.2241 194.778 80.0651 194.477C79.9061 194.172 79.6821 193.931 79.3941 193.756C79.1091 193.58 78.7741 193.492 78.3891 193.492C77.9721 193.492 77.6071 193.595 77.2961 193.8C76.9871 194.003 76.7491 194.268 76.5801 194.596C76.4141 194.921 76.3311 195.274 76.3311 195.655V196.525C76.3311 197.035 76.4211 197.469 76.6001 197.827C76.7821 198.185 77.0351 198.459 77.3601 198.648C77.6851 198.833 78.0651 198.926 78.4991 198.926C78.7801 198.926 79.0371 198.886 79.2691 198.807C79.5011 198.724 79.7021 198.601 79.8711 198.439C80.0401 198.277 80.1691 198.076 80.2591 197.837L81.6661 198.091C81.5531 198.505 81.3511 198.868 81.0591 199.18C80.7711 199.488 80.4081 199.728 79.9701 199.901C79.5361 200.07 79.0411 200.154 78.4841 200.154ZM89.3371 200.169C88.8531 200.169 88.4151 200.08 88.0241 199.901C87.6331 199.718 87.3231 199.455 87.0951 199.11C86.8691 198.765 86.7571 198.343 86.7571 197.842C86.7571 197.411 86.8391 197.057 87.0051 196.778C87.1711 196.5 87.3951 196.28 87.6761 196.117C87.9581 195.955 88.2731 195.832 88.6211 195.749C88.9691 195.666 89.3241 195.603 89.6851 195.56C90.1421 195.507 90.5131 195.464 90.7981 195.431C91.0841 195.395 91.2911 195.337 91.4201 195.257C91.5491 195.178 91.6141 195.048 91.6141 194.869V194.835C91.6141 194.4 91.4911 194.064 91.2461 193.825C91.0041 193.587 90.6431 193.467 90.1621 193.467C89.6621 193.467 89.2671 193.578 88.9791 193.8C88.6941 194.019 88.4971 194.263 88.3871 194.531L86.9901 194.213C87.1561 193.749 87.3981 193.375 87.7161 193.089C88.0381 192.801 88.4071 192.592 88.8251 192.463C89.2421 192.33 89.6821 192.264 90.1421 192.264C90.4471 192.264 90.7701 192.301 91.1121 192.374C91.4561 192.443 91.7781 192.572 92.0761 192.761C92.3781 192.95 92.6251 193.22 92.8171 193.572C93.0091 193.92 93.1051 194.372 93.1051 194.929V200H91.6541V198.956H91.5941C91.4981 199.148 91.3541 199.337 91.1611 199.523C90.9691 199.708 90.7221 199.862 90.4211 199.985C90.1191 200.108 89.7581 200.169 89.3371 200.169ZM89.6601 198.976C90.0711 198.976 90.4221 198.895 90.7141 198.732C91.0091 198.57 91.2331 198.358 91.3851 198.096C91.5411 197.831 91.6191 197.547 91.6191 197.246V196.261C91.5661 196.314 91.4631 196.364 91.3111 196.411C91.1611 196.454 90.9911 196.492 90.7981 196.525C90.6061 196.555 90.4191 196.583 90.2371 196.609C90.0541 196.633 89.9021 196.652 89.7791 196.669C89.4911 196.705 89.2271 196.767 88.9891 196.853C88.7531 196.939 88.5651 197.063 88.4221 197.226C88.2831 197.385 88.2131 197.597 88.2131 197.862C88.2131 198.23 88.3491 198.509 88.6211 198.697C88.8931 198.883 89.2391 198.976 89.6601 198.976ZM98.7901 200V192.364H100.217V193.607H100.312C100.471 193.186 100.731 192.857 101.092 192.622C101.453 192.384 101.886 192.264 102.39 192.264C102.9 192.264 103.328 192.384 103.672 192.622C104.02 192.861 104.277 193.189 104.443 193.607H104.523C104.705 193.199 104.995 192.874 105.393 192.632C105.79 192.387 106.264 192.264 106.814 192.264C107.507 192.264 108.072 192.481 108.51 192.915C108.951 193.35 109.171 194.004 109.171 194.879V200H107.684V195.018C107.684 194.501 107.544 194.127 107.262 193.895C106.98 193.663 106.644 193.547 106.253 193.547C105.769 193.547 105.393 193.696 105.124 193.994C104.856 194.289 104.721 194.669 104.721 195.133V200H103.24V194.924C103.24 194.51 103.111 194.177 102.852 193.925C102.594 193.673 102.257 193.547 101.843 193.547C101.561 193.547 101.301 193.621 101.062 193.771C100.827 193.916 100.636 194.12 100.491 194.382C100.348 194.644 100.277 194.947 100.277 195.292V200H98.7901ZM114.455 200.154C113.702 200.154 113.054 199.993 112.511 199.672C111.97 199.347 111.553 198.891 111.258 198.305C110.966 197.715 110.82 197.024 110.82 196.232C110.82 195.449 110.966 194.76 111.258 194.163C111.553 193.567 111.964 193.101 112.491 192.766C113.021 192.432 113.641 192.264 114.35 192.264C114.781 192.264 115.199 192.335 115.603 192.478C116.007 192.621 116.37 192.844 116.692 193.149C117.013 193.454 117.267 193.85 117.452 194.337C117.638 194.821 117.731 195.41 117.731 196.102V196.629H111.661V195.516H116.274C116.274 195.125 116.195 194.778 116.036 194.477C115.876 194.172 115.653 193.931 115.364 193.756C115.079 193.58 114.745 193.492 114.36 193.492C113.942 193.492 113.578 193.595 113.266 193.8C112.958 194.003 112.719 194.268 112.55 194.596C112.385 194.921 112.302 195.274 112.302 195.655V196.525C112.302 197.035 112.391 197.469 112.57 197.827C112.753 198.185 113.006 198.459 113.331 198.648C113.656 198.833 114.035 198.926 114.469 198.926C114.751 198.926 115.008 198.886 115.24 198.807C115.472 198.724 115.673 198.601 115.842 198.439C116.011 198.277 116.14 198.076 116.229 197.837L117.636 198.091C117.524 198.505 117.321 198.868 117.03 199.18C116.741 199.488 116.379 199.728 115.941 199.901C115.507 200.07 115.011 200.154 114.455 200.154ZM125.102 194.228L123.755 194.467C123.699 194.294 123.609 194.13 123.487 193.974C123.367 193.819 123.205 193.691 122.999 193.592C122.794 193.492 122.537 193.442 122.229 193.442C121.808 193.442 121.457 193.537 121.175 193.726C120.893 193.911 120.752 194.152 120.752 194.447C120.752 194.702 120.847 194.907 121.036 195.063C121.225 195.219 121.53 195.347 121.95 195.446L123.164 195.724C123.866 195.887 124.39 196.137 124.735 196.475C125.079 196.813 125.252 197.252 125.252 197.793C125.252 198.25 125.119 198.658 124.854 199.016C124.592 199.37 124.226 199.649 123.755 199.851C123.288 200.053 122.746 200.154 122.129 200.154C121.274 200.154 120.577 199.972 120.036 199.607C119.496 199.239 119.165 198.717 119.042 198.041L120.479 197.822C120.568 198.197 120.752 198.48 121.031 198.673C121.309 198.862 121.672 198.956 122.119 198.956C122.607 198.956 122.996 198.855 123.288 198.653C123.579 198.447 123.725 198.197 123.725 197.902C123.725 197.663 123.636 197.463 123.457 197.3C123.281 197.138 123.011 197.015 122.646 196.933L121.354 196.649C120.641 196.487 120.114 196.228 119.773 195.874C119.435 195.519 119.266 195.07 119.266 194.526C119.266 194.076 119.392 193.681 119.644 193.343C119.896 193.005 120.244 192.741 120.688 192.553C121.132 192.36 121.641 192.264 122.214 192.264C123.039 192.264 123.689 192.443 124.163 192.801C124.637 193.156 124.95 193.631 125.102 194.228ZM132.608 194.228L131.261 194.467C131.205 194.294 131.115 194.13 130.993 193.974C130.873 193.819 130.711 193.691 130.505 193.592C130.3 193.492 130.043 193.442 129.735 193.442C129.314 193.442 128.962 193.537 128.681 193.726C128.399 193.911 128.258 194.152 128.258 194.447C128.258 194.702 128.353 194.907 128.542 195.063C128.73 195.219 129.035 195.347 129.456 195.446L130.669 195.724C131.372 195.887 131.896 196.137 132.24 196.475C132.585 196.813 132.757 197.252 132.757 197.793C132.757 198.25 132.625 198.658 132.36 199.016C132.098 199.37 131.732 199.649 131.261 199.851C130.794 200.053 130.252 200.154 129.635 200.154C128.78 200.154 128.083 199.972 127.542 199.607C127.002 199.239 126.671 198.717 126.548 198.041L127.985 197.822C128.074 198.197 128.258 198.48 128.537 198.673C128.815 198.862 129.178 198.956 129.625 198.956C130.113 198.956 130.502 198.855 130.794 198.653C131.085 198.447 131.231 198.197 131.231 197.902C131.231 197.663 131.142 197.463 130.963 197.3C130.787 197.138 130.517 197.015 130.152 196.933L128.86 196.649C128.147 196.487 127.62 196.228 127.279 195.874C126.941 195.519 126.772 195.07 126.772 194.526C126.772 194.076 126.898 193.681 127.15 193.343C127.401 193.005 127.749 192.741 128.194 192.553C128.638 192.36 129.146 192.264 129.72 192.264C130.545 192.264 131.195 192.443 131.669 192.801C132.143 193.156 132.456 193.631 132.608 194.228ZM136.614 200.169C136.13 200.169 135.693 200.08 135.302 199.901C134.911 199.718 134.601 199.455 134.372 199.11C134.147 198.765 134.034 198.343 134.034 197.842C134.034 197.411 134.117 197.057 134.282 196.778C134.448 196.5 134.672 196.28 134.954 196.117C135.235 195.955 135.55 195.832 135.898 195.749C136.246 195.666 136.601 195.603 136.962 195.56C137.42 195.507 137.791 195.464 138.076 195.431C138.361 195.395 138.568 195.337 138.697 195.257C138.827 195.178 138.891 195.048 138.891 194.869V194.835C138.891 194.4 138.769 194.064 138.523 193.825C138.281 193.587 137.92 193.467 137.439 193.467C136.939 193.467 136.545 193.578 136.256 193.8C135.971 194.019 135.774 194.263 135.665 194.531L134.268 194.213C134.433 193.749 134.675 193.375 134.993 193.089C135.315 192.801 135.684 192.592 136.102 192.463C136.52 192.33 136.959 192.264 137.42 192.264C137.724 192.264 138.048 192.301 138.389 192.374C138.734 192.443 139.055 192.572 139.354 192.761C139.655 192.95 139.902 193.22 140.094 193.572C140.287 193.92 140.383 194.372 140.383 194.929V200H138.931V198.956H138.871C138.775 199.148 138.631 199.337 138.439 199.523C138.247 199.708 138 199.862 137.698 199.985C137.396 200.108 137.035 200.169 136.614 200.169ZM136.937 198.976C137.348 198.976 137.7 198.895 137.991 198.732C138.286 198.57 138.51 198.358 138.662 198.096C138.818 197.831 138.896 197.547 138.896 197.246V196.261C138.843 196.314 138.74 196.364 138.588 196.411C138.439 196.454 138.268 196.492 138.076 196.525C137.884 196.555 137.696 196.583 137.514 196.609C137.332 196.633 137.179 196.652 137.057 196.669C136.768 196.705 136.505 196.767 136.266 196.853C136.031 196.939 135.842 197.063 135.699 197.226C135.56 197.385 135.491 197.597 135.491 197.862C135.491 198.23 135.626 198.509 135.898 198.697C136.17 198.883 136.516 198.976 136.937 198.976ZM145.564 203.023C144.958 203.023 144.436 202.943 143.998 202.784C143.564 202.625 143.209 202.415 142.934 202.153C142.659 201.891 142.454 201.604 142.318 201.293L143.596 200.766C143.685 200.911 143.804 201.066 143.953 201.228C144.106 201.394 144.311 201.535 144.57 201.651C144.832 201.767 145.168 201.825 145.579 201.825C146.143 201.825 146.608 201.687 146.976 201.412C147.344 201.14 147.528 200.706 147.528 200.109V198.608H147.434C147.344 198.77 147.215 198.951 147.046 199.15C146.88 199.349 146.651 199.521 146.36 199.667C146.068 199.813 145.689 199.886 145.221 199.886C144.618 199.886 144.074 199.745 143.591 199.463C143.11 199.178 142.729 198.759 142.447 198.205C142.169 197.648 142.029 196.964 142.029 196.152C142.029 195.34 142.167 194.644 142.442 194.064C142.721 193.484 143.102 193.04 143.586 192.732C144.069 192.42 144.618 192.264 145.231 192.264C145.705 192.264 146.088 192.344 146.38 192.503C146.671 192.659 146.898 192.841 147.061 193.05C147.226 193.259 147.354 193.442 147.444 193.602H147.553V192.364H149.01V200.169C149.01 200.825 148.857 201.364 148.552 201.785C148.247 202.206 147.835 202.517 147.314 202.719C146.797 202.922 146.214 203.023 145.564 203.023ZM145.549 198.653C145.977 198.653 146.338 198.553 146.633 198.354C146.931 198.152 147.157 197.864 147.309 197.489C147.465 197.112 147.543 196.659 147.543 196.132C147.543 195.618 147.467 195.166 147.314 194.775C147.162 194.384 146.938 194.079 146.643 193.86C146.348 193.638 145.984 193.527 145.549 193.527C145.102 193.527 144.729 193.643 144.431 193.875C144.132 194.104 143.907 194.415 143.755 194.81C143.605 195.204 143.531 195.645 143.531 196.132C143.531 196.633 143.607 197.072 143.76 197.45C143.912 197.827 144.137 198.122 144.436 198.335C144.737 198.547 145.109 198.653 145.549 198.653ZM154.294 200.154C153.542 200.154 152.894 199.993 152.35 199.672C151.81 199.347 151.393 198.891 151.098 198.305C150.806 197.715 150.66 197.024 150.66 196.232C150.66 195.449 150.806 194.76 151.098 194.163C151.393 193.567 151.804 193.101 152.331 192.766C152.861 192.432 153.481 192.264 154.19 192.264C154.621 192.264 155.038 192.335 155.443 192.478C155.847 192.621 156.21 192.844 156.532 193.149C156.853 193.454 157.107 193.85 157.292 194.337C157.478 194.821 157.571 195.41 157.571 196.102V196.629H151.5V195.516H156.114C156.114 195.125 156.034 194.778 155.875 194.477C155.716 194.172 155.493 193.931 155.204 193.756C154.919 193.58 154.584 193.492 154.2 193.492C153.782 193.492 153.418 193.595 153.106 193.8C152.798 194.003 152.559 194.268 152.39 194.596C152.225 194.921 152.142 195.274 152.142 195.655V196.525C152.142 197.035 152.231 197.469 152.41 197.827C152.592 198.185 152.846 198.459 153.171 198.648C153.496 198.833 153.875 198.926 154.309 198.926C154.591 198.926 154.848 198.886 155.08 198.807C155.312 198.724 155.512 198.601 155.681 198.439C155.85 198.277 155.98 198.076 156.069 197.837L157.476 198.091C157.364 198.505 157.161 198.868 156.87 199.18C156.581 199.488 156.218 199.728 155.781 199.901C155.347 200.07 154.851 200.154 154.294 200.154Z" fill="black"/>
<path d="M110.211 28.36C109.171 26.26 107.161 24.71 104.831 24.2C102.391 23.66 99.8907 24.24 97.9807 25.78C96.0607 27.31 94.9707 29.6 94.9707 32.05C94.9707 34.64 96.5207 37.35 98.8607 38.92V39.75C98.8507 40.03 98.8407 40.46 99.1807 40.81C99.5307 41.17 100.051 41.21 100.461 41.21H105.591C106.131 41.21 106.541 41.06 106.821 40.78C107.201 40.39 107.191 39.89 107.181 39.62V38.92C110.281 36.83 112.231 32.42 110.211 28.36Z" fill="#FBCB18"/>
<path d="M106.26 43.9999C106.2 43.9999 106.13 43.9899 106.07 43.9699C104.06 43.3999 101.95 43.3999 99.9402 43.9699C99.5702 44.0699 99.1802 43.8599 99.0802 43.4899C98.9702 43.1199 99.1901 42.7299 99.5601 42.6299C101.82 41.9899 104.2 41.9899 106.46 42.6299C106.83 42.7399 107.05 43.1199 106.94 43.4899C106.84 43.7999 106.56 43.9999 106.26 43.9999Z" fill="#FBCB18"/>
<path d="M53.6162 76.1411V74.8181H61.4962V76.1411H58.3202V85.0001H56.7882V76.1411H53.6162ZM64.6052 80.4661V85.0001H63.1182V74.8181H64.5852V78.6071H64.6802C64.8582 78.1961 65.1322 77.8691 65.5002 77.6271C65.8682 77.3851 66.3482 77.2641 66.9422 77.2641C67.4652 77.2641 67.9232 77.3721 68.3142 77.5871C68.7082 77.8031 69.0132 78.1241 69.2292 78.5521C69.4472 78.9761 69.5572 79.5061 69.5572 80.1431V85.0001H68.0702V80.3221C68.0702 79.7621 67.9262 79.3271 67.6382 79.0191C67.3492 78.7081 66.9482 78.5521 66.4342 78.5521C66.0832 78.5521 65.7682 78.6261 65.4902 78.7761C65.2152 78.9251 64.9982 79.1431 64.8392 79.4321C64.6832 79.7171 64.6052 80.0621 64.6052 80.4661ZM74.7572 85.1541C74.0412 85.1541 73.4162 84.9901 72.8832 84.6621C72.3492 84.3341 71.9352 83.8751 71.6402 83.2851C71.3452 82.6951 71.1972 82.0051 71.1972 81.2171C71.1972 80.4241 71.3452 79.7321 71.6402 79.1381C71.9352 78.5451 72.3492 78.0851 72.8832 77.7561C73.4162 77.4281 74.0412 77.2641 74.7572 77.2641C75.4732 77.2641 76.0982 77.4281 76.6312 77.7561C77.1652 78.0851 77.5792 78.5451 77.8742 79.1381C78.1692 79.7321 78.3172 80.4241 78.3172 81.2171C78.3172 82.0051 78.1692 82.6951 77.8742 83.2851C77.5792 83.8751 77.1652 84.3341 76.6312 84.6621C76.0982 84.9901 75.4732 85.1541 74.7572 85.1541ZM74.7622 83.9061C75.2262 83.9061 75.6102 83.7841 75.9152 83.5381C76.2202 83.2931 76.4462 82.9671 76.5912 82.5591C76.7412 82.1511 76.8152 81.7021 76.8152 81.2121C76.8152 80.7241 76.7412 80.2771 76.5912 79.8691C76.4462 79.4581 76.2202 79.1291 75.9152 78.8801C75.6102 78.6311 75.2262 78.5071 74.7622 78.5071C74.2952 78.5071 73.9072 78.6311 73.5992 78.8801C73.2942 79.1291 73.0672 79.4581 72.9172 79.8691C72.7722 80.2771 72.6992 80.7241 72.6992 81.2121C72.6992 81.7021 72.7722 82.1511 72.9172 82.5591C73.0672 82.9671 73.2942 83.2931 73.5992 83.5381C73.9072 83.7841 74.2952 83.9061 74.7622 83.9061ZM84.8132 81.8331V77.3641H86.3052V85.0001H84.8432V83.6781H84.7632C84.5882 84.0851 84.3062 84.4251 83.9182 84.6971C83.5342 84.9651 83.0552 85.0991 82.4822 85.0991C81.9912 85.0991 81.5572 84.9921 81.1792 84.7761C80.8042 84.5581 80.5092 84.2341 80.2942 83.8071C80.0822 83.3791 79.9762 82.8511 79.9762 82.2211V77.3641H81.4622V82.0421C81.4622 82.5621 81.6072 82.9771 81.8952 83.2851C82.1832 83.5931 82.5582 83.7471 83.0182 83.7471C83.2972 83.7471 83.5742 83.6781 83.8492 83.5381C84.1272 83.3991 84.3572 83.1891 84.5402 82.9071C84.7252 82.6251 84.8172 82.2671 84.8132 81.8331ZM91.5042 88.0231C90.8972 88.0231 90.3752 87.9431 89.9382 87.7841C89.5032 87.6251 89.1492 87.4151 88.8742 87.1531C88.5992 86.8911 88.3932 86.6042 88.2572 86.2932L89.5352 85.7661C89.6242 85.9111 89.7442 86.0661 89.8932 86.2281C90.0452 86.3941 90.2512 86.5351 90.5092 86.6511C90.7712 86.7671 91.1082 86.8251 91.5192 86.8251C92.0822 86.8251 92.5482 86.6871 92.9162 86.4121C93.2842 86.1401 93.4682 85.7061 93.4682 85.1091V83.6081H93.3732C93.2842 83.7701 93.1542 83.9511 92.9852 84.1501C92.8202 84.3491 92.5912 84.5211 92.2992 84.6671C92.0082 84.8131 91.6282 84.8861 91.1612 84.8861C90.5572 84.8861 90.0142 84.7451 89.5302 84.4631C89.0492 84.1781 88.6682 83.7591 88.3872 83.2051C88.1082 82.6481 87.9692 81.9641 87.9692 81.1521C87.9692 80.3401 88.1062 79.6441 88.3822 79.0641C88.6602 78.4841 89.0412 78.0401 89.5252 77.7321C90.0092 77.4201 90.5572 77.2641 91.1712 77.2641C91.6452 77.2641 92.0272 77.3441 92.3192 77.5031C92.6112 77.6591 92.8382 77.8411 93.0002 78.0501C93.1662 78.2591 93.2942 78.4421 93.3832 78.6021H93.4922V77.3641H94.9492V85.1691C94.9492 85.8251 94.7972 86.3641 94.4922 86.7851C94.1872 87.2061 93.7742 87.5171 93.2542 87.7191C92.7372 87.9221 92.1532 88.0231 91.5042 88.0231ZM91.4892 83.6531C91.9162 83.6531 92.2782 83.5531 92.5732 83.3541C92.8712 83.1521 93.0962 82.8641 93.2492 82.4891C93.4052 82.1121 93.4822 81.6591 93.4822 81.1321C93.4822 80.6181 93.4062 80.1661 93.2542 79.7751C93.1012 79.3841 92.8782 79.0791 92.5832 78.8601C92.2882 78.6381 91.9232 78.5271 91.4892 78.5271C91.0412 78.5271 90.6692 78.6431 90.3702 78.8751C90.0722 79.1041 89.8472 79.4151 89.6942 79.8101C89.5452 80.2041 89.4702 80.6451 89.4702 81.1321C89.4702 81.6331 89.5472 82.0721 89.6992 82.4501C89.8522 82.8271 90.0772 83.1221 90.3752 83.3351C90.6772 83.5471 91.0482 83.6531 91.4892 83.6531ZM98.4292 80.4661V85.0001H96.9432V74.8181H98.4092V78.6071H98.5042C98.6832 78.1961 98.9562 77.8691 99.3242 77.6271C99.6922 77.3851 100.173 77.2641 100.766 77.2641C101.289 77.2641 101.747 77.3721 102.138 77.5871C102.532 77.8031 102.837 78.1241 103.053 78.5521C103.271 78.9761 103.381 79.5061 103.381 80.1431V85.0001H101.894V80.3221C101.894 79.7621 101.75 79.3271 101.462 79.0191C101.173 78.7081 100.772 78.5521 100.259 78.5521C99.9072 78.5521 99.5932 78.6261 99.3142 78.7761C99.0392 78.9251 98.8222 79.1431 98.6632 79.4321C98.5072 79.7171 98.4292 80.0621 98.4292 80.4661ZM108.929 77.3641V78.5571H104.758V77.3641H108.929ZM105.877 75.5341H107.363V82.7581C107.363 83.0461 107.406 83.2631 107.492 83.4091C107.579 83.5521 107.69 83.6491 107.825 83.7021C107.965 83.7521 108.115 83.7771 108.278 83.7771C108.397 83.7771 108.502 83.7691 108.591 83.7521C108.681 83.7361 108.75 83.7221 108.8 83.7121L109.068 84.9401C108.982 84.9731 108.86 85.0071 108.7 85.0401C108.541 85.0761 108.343 85.0961 108.104 85.0991C107.713 85.1061 107.348 85.0361 107.01 84.8911C106.672 84.7451 106.399 84.5191 106.19 84.2141C105.981 83.9101 105.877 83.5271 105.877 83.0661V75.5341ZM116.173 79.2281L114.825 79.4671C114.769 79.2941 114.68 79.1301 114.557 78.9741C114.438 78.8191 114.275 78.6911 114.07 78.5921C113.864 78.4921 113.607 78.4421 113.299 78.4421C112.878 78.4421 112.527 78.5371 112.245 78.7261C111.963 78.9111 111.823 79.1521 111.823 79.4471C111.823 79.7021 111.917 79.9071 112.106 80.0631C112.295 80.2191 112.6 80.3471 113.021 80.4461L114.234 80.7241C114.936 80.8871 115.46 81.1371 115.805 81.4751C116.15 81.8131 116.322 82.2522 116.322 82.7932C116.322 83.2502 116.189 83.6581 115.924 84.0161C115.662 84.3701 115.296 84.6491 114.825 84.8511C114.358 85.0531 113.816 85.1541 113.2 85.1541C112.345 85.1541 111.647 84.9721 111.107 84.6071C110.566 84.2391 110.235 83.7171 110.112 83.0411L111.549 82.8221C111.639 83.1971 111.823 83.4801 112.101 83.6731C112.379 83.8621 112.742 83.9561 113.19 83.9561C113.677 83.9561 114.066 83.8551 114.358 83.6531C114.65 83.4471 114.796 83.1971 114.796 82.9021C114.796 82.6631 114.706 82.4631 114.527 82.3001C114.352 82.1381 114.081 82.0151 113.717 81.9331L112.424 81.6491C111.712 81.4871 111.185 81.2281 110.843 80.8741C110.505 80.5191 110.336 80.0701 110.336 79.5261C110.336 79.0761 110.462 78.6811 110.714 78.3431C110.966 78.0051 111.314 77.7411 111.758 77.5531C112.202 77.3601 112.711 77.2641 113.284 77.2641C114.11 77.2641 114.759 77.4431 115.233 77.8011C115.707 78.1561 116.02 78.6311 116.173 79.2281ZM121.279 76.1411V74.8181H129.159V76.1411H125.982V85.0001H124.45V76.1411H121.279ZM130.781 85.0001V77.3641H132.267V85.0001H130.781ZM131.531 76.1851C131.273 76.1851 131.051 76.0991 130.865 75.9271C130.683 75.7511 130.592 75.5421 130.592 75.3001C130.592 75.0551 130.683 74.8461 130.865 74.6741C131.051 74.4981 131.273 74.4111 131.531 74.4111C131.79 74.4111 132.01 74.4981 132.192 74.6741C132.378 74.8461 132.471 75.0551 132.471 75.3001C132.471 75.5421 132.378 75.7511 132.192 75.9271C132.01 76.0991 131.79 76.1851 131.531 76.1851ZM134.267 85.0001V77.3641H135.694V78.6071H135.788C135.947 78.1861 136.207 77.8571 136.569 77.6221C136.93 77.3841 137.363 77.2641 137.866 77.2641C138.377 77.2641 138.804 77.3841 139.149 77.6221C139.497 77.8611 139.754 78.1891 139.92 78.6071H139.999C140.181 78.1991 140.471 77.8741 140.869 77.6321C141.267 77.3871 141.741 77.2641 142.291 77.2641C142.984 77.2641 143.549 77.4811 143.986 77.9151C144.427 78.3501 144.648 79.0042 144.648 79.8792V85.0001H143.161V80.0181C143.161 79.5011 143.02 79.1271 142.738 78.8951C142.457 78.6631 142.12 78.5471 141.729 78.5471C141.245 78.5471 140.869 78.6961 140.601 78.9941C140.332 79.2891 140.198 79.6691 140.198 80.1331V85.0001H138.716V79.9241C138.716 79.5101 138.587 79.1771 138.329 78.9251C138.07 78.6731 137.734 78.5471 137.319 78.5471C137.038 78.5471 136.778 78.6211 136.539 78.7711C136.304 78.9161 136.113 79.1201 135.967 79.3821C135.825 79.6441 135.753 79.9471 135.753 80.2921V85.0001H134.267ZM149.931 85.1541C149.179 85.1541 148.531 84.9931 147.987 84.6721C147.447 84.3471 147.029 83.8911 146.734 83.3051C146.443 82.7151 146.297 82.0241 146.297 81.2321C146.297 80.4491 146.443 79.7601 146.734 79.1631C147.029 78.5671 147.44 78.1011 147.967 77.7661C148.498 77.4321 149.117 77.2641 149.827 77.2641C150.258 77.2641 150.675 77.3351 151.08 77.4781C151.484 77.6211 151.847 77.8441 152.168 78.1491C152.49 78.4541 152.743 78.8501 152.929 79.3371C153.115 79.8211 153.207 80.4101 153.207 81.1021V81.6292H147.137V80.5161H151.751C151.751 80.1251 151.671 79.7781 151.512 79.4771C151.353 79.1721 151.129 78.9311 150.841 78.7561C150.556 78.5801 150.221 78.4921 149.837 78.4921C149.419 78.4921 149.054 78.5951 148.743 78.8001C148.435 79.0031 148.196 79.2681 148.027 79.5961C147.861 79.9211 147.778 80.2742 147.778 80.6552V81.5251C147.778 82.0351 147.868 82.4691 148.047 82.8271C148.229 83.1851 148.483 83.4591 148.808 83.6481C149.132 83.8331 149.512 83.9261 149.946 83.9261C150.228 83.9261 150.485 83.8861 150.717 83.8071C150.949 83.7241 151.149 83.6011 151.318 83.4391C151.487 83.2771 151.616 83.0761 151.706 82.8371L153.113 83.0911C153 83.5051 152.798 83.8681 152.506 84.1801C152.218 84.4881 151.855 84.7281 151.418 84.9011C150.983 85.0701 150.488 85.1541 149.931 85.1541Z" fill="black"/>
<path d="M25.1175 112L22.7305 103.273H23.8045L25.6285 110.381H25.7135L27.5715 103.273H28.7645L30.6225 110.381H30.7085L32.5315 103.273H33.6055L31.2195 112H30.1285L28.2025 105.045H28.1345L26.2085 112H25.1175ZM36.9215 112.136C36.2905 112.136 35.7465 111.997 35.2895 111.719C34.8345 111.438 34.4835 111.045 34.2365 110.543C33.9925 110.037 33.8695 109.449 33.8695 108.778C33.8695 108.108 33.9925 107.517 34.2365 107.006C34.4835 106.491 34.8275 106.091 35.2675 105.804C35.7105 105.514 36.2275 105.369 36.8185 105.369C37.1595 105.369 37.4965 105.426 37.8285 105.54C38.1615 105.653 38.4635 105.838 38.7365 106.094C39.0095 106.347 39.2265 106.682 39.3885 107.099C39.5505 107.517 39.6315 108.031 39.6315 108.642V109.068H34.5855V108.199H38.6085C38.6085 107.83 38.5345 107.5 38.3875 107.21C38.2425 106.92 38.0345 106.692 37.7645 106.524C37.4975 106.357 37.1825 106.273 36.8185 106.273C36.4185 106.273 36.0715 106.372 35.7795 106.571C35.4895 106.767 35.2665 107.023 35.1105 107.338C34.9535 107.653 34.8755 107.991 34.8755 108.352V108.932C34.8755 109.426 34.9605 109.845 35.1315 110.189C35.3045 110.53 35.5445 110.79 35.8515 110.969C36.1585 111.145 36.5145 111.233 36.9215 111.233C37.1855 111.233 37.4235 111.196 37.6375 111.122C37.8525 111.045 38.0395 110.932 38.1955 110.781C38.3515 110.628 38.4725 110.437 38.5575 110.21L39.5295 110.483C39.4265 110.812 39.2545 111.102 39.0135 111.352C38.7715 111.599 38.4735 111.793 38.1185 111.932C37.7635 112.068 37.3645 112.136 36.9215 112.136ZM47.0075 112.136C46.4625 112.136 45.9805 111.999 45.5635 111.723C45.1455 111.445 44.8185 111.053 44.5835 110.547C44.3475 110.038 44.2295 109.438 44.2295 108.744C44.2295 108.057 44.3475 107.46 44.5835 106.955C44.8185 106.449 45.1465 106.058 45.5675 105.783C45.9875 105.507 46.4735 105.369 47.0245 105.369C47.4505 105.369 47.7875 105.44 48.0345 105.582C48.2845 105.722 48.4755 105.881 48.6055 106.06C48.7395 106.236 48.8435 106.381 48.9165 106.494H49.0025V103.273H50.0075V112H49.0365V110.994H48.9165C48.8435 111.114 48.7375 111.264 48.6015 111.446C48.4655 111.625 48.2705 111.786 48.0175 111.928C47.7645 112.067 47.4285 112.136 47.0075 112.136ZM47.1445 111.233C47.5475 111.233 47.8885 111.128 48.1665 110.918C48.4455 110.705 48.6565 110.411 48.8015 110.036C48.9465 109.658 49.0195 109.222 49.0195 108.727C49.0195 108.239 48.9485 107.811 48.8065 107.445C48.6645 107.075 48.4535 106.788 48.1755 106.584C47.8965 106.376 47.5535 106.273 47.1445 106.273C46.7185 106.273 46.3625 106.382 46.0785 106.601C45.7975 106.817 45.5855 107.111 45.4435 107.483C45.3045 107.852 45.2355 108.267 45.2355 108.727C45.2355 109.193 45.3065 109.616 45.4485 109.997C45.5935 110.375 45.8065 110.676 46.0875 110.901C46.3715 111.122 46.7235 111.233 47.1445 111.233ZM54.6485 112.136C54.0575 112.136 53.5395 111.996 53.0935 111.714C52.6495 111.433 52.3035 111.04 52.0535 110.534C51.8065 110.028 51.6825 109.437 51.6825 108.761C51.6825 108.08 51.8065 107.484 52.0535 106.976C52.3035 106.467 52.6495 106.072 53.0935 105.791C53.5395 105.51 54.0575 105.369 54.6485 105.369C55.2395 105.369 55.7565 105.51 56.1995 105.791C56.6455 106.072 56.9925 106.467 57.2395 106.976C57.4895 107.484 57.6145 108.08 57.6145 108.761C57.6145 109.437 57.4895 110.028 57.2395 110.534C56.9925 111.04 56.6455 111.433 56.1995 111.714C55.7565 111.996 55.2395 112.136 54.6485 112.136ZM54.6485 111.233C55.0975 111.233 55.4665 111.118 55.7565 110.888C56.0465 110.658 56.2605 110.355 56.3995 109.98C56.5395 109.605 56.6085 109.199 56.6085 108.761C56.6085 108.324 56.5395 107.916 56.3995 107.538C56.2605 107.161 56.0465 106.855 55.7565 106.622C55.4665 106.389 55.0975 106.273 54.6485 106.273C54.1995 106.273 53.8305 106.389 53.5405 106.622C53.2505 106.855 53.0365 107.161 52.8965 107.538C52.7575 107.916 52.6885 108.324 52.6885 108.761C52.6885 109.199 52.7575 109.605 52.8965 109.98C53.0365 110.355 53.2505 110.658 53.5405 110.888C53.8305 111.118 54.1995 111.233 54.6485 111.233ZM60.1555 108.062V112H59.1495V105.455H60.1215V106.477H60.2065C60.3595 106.145 60.5925 105.878 60.9055 105.676C61.2175 105.472 61.6215 105.369 62.1155 105.369C62.5585 105.369 62.9465 105.46 63.2785 105.642C63.6115 105.821 63.8695 106.094 64.0545 106.46C64.2385 106.824 64.3315 107.284 64.3315 107.841V112H63.3255V107.909C63.3255 107.395 63.1925 106.994 62.9255 106.707C62.6575 106.418 62.2915 106.273 61.8255 106.273C61.5045 106.273 61.2175 106.342 60.9645 106.482C60.7145 106.621 60.5175 106.824 60.3725 107.091C60.2275 107.358 60.1555 107.682 60.1555 108.062ZM67.0555 103.273V104.04C67.0555 104.273 67.0125 104.521 66.9275 104.786C66.8455 105.047 66.7225 105.301 66.5615 105.548C66.4015 105.793 66.2085 106.006 65.9815 106.188L65.4365 105.744C65.6155 105.489 65.7695 105.223 65.9005 104.947C66.0345 104.669 66.1005 104.372 66.1005 104.057V103.273H67.0555ZM71.4065 105.455V106.307H68.0145V105.455H71.4065ZM69.0025 103.886H70.0085V110.125C70.0085 110.409 70.0495 110.622 70.1325 110.764C70.2175 110.903 70.3255 110.997 70.4555 111.045C70.5895 111.091 70.7305 111.114 70.8775 111.114C70.9885 111.114 71.0795 111.108 71.1505 111.097C71.2215 111.082 71.2785 111.071 71.3205 111.062L71.5255 111.966C71.4575 111.991 71.3625 112.017 71.2405 112.043C71.1175 112.071 70.9635 112.085 70.7755 112.085C70.4915 112.085 70.2135 112.024 69.9405 111.902C69.6705 111.78 69.4455 111.594 69.2675 111.344C69.0905 111.094 69.0025 110.778 69.0025 110.398V103.886ZM77.2995 108.062V112H76.2945V103.273H77.2995V106.477H77.3845C77.5385 106.139 77.7685 105.871 78.0755 105.672C78.3845 105.47 78.7965 105.369 79.3115 105.369C79.7575 105.369 80.1475 105.459 80.4825 105.638C80.8185 105.814 81.0785 106.085 81.2625 106.452C81.4505 106.815 81.5445 107.278 81.5445 107.841V112H80.5385V107.909C80.5385 107.389 80.4035 106.987 80.1335 106.703C79.8665 106.416 79.4955 106.273 79.0215 106.273C78.6915 106.273 78.3965 106.342 78.1345 106.482C77.8765 106.621 77.6715 106.824 77.5215 107.091C77.3735 107.358 77.2995 107.682 77.2995 108.062ZM85.3095 112.153C84.8955 112.153 84.5185 112.075 84.1805 111.919C83.8425 111.76 83.5745 111.531 83.3755 111.233C83.1765 110.932 83.0775 110.568 83.0775 110.142C83.0775 109.767 83.1505 109.463 83.2985 109.23C83.4465 108.994 83.6435 108.81 83.8905 108.676C84.1385 108.543 84.4105 108.443 84.7095 108.378C85.0105 108.31 85.3125 108.256 85.6165 108.216C86.0145 108.165 86.3365 108.126 86.5845 108.101C86.8345 108.072 87.0155 108.026 87.1295 107.96C87.2465 107.895 87.3045 107.781 87.3045 107.619V107.585C87.3045 107.165 87.1895 106.838 86.9595 106.605C86.7315 106.372 86.3865 106.256 85.9235 106.256C85.4435 106.256 85.0675 106.361 84.7945 106.571C84.5215 106.781 84.3295 107.006 84.2195 107.244L83.2645 106.903C83.4345 106.506 83.6625 106.196 83.9465 105.974C84.2335 105.75 84.5455 105.594 84.8835 105.506C85.2245 105.415 85.5595 105.369 85.8895 105.369C86.0995 105.369 86.3415 105.395 86.6135 105.446C86.8895 105.494 87.1555 105.595 87.4105 105.749C87.6695 105.902 87.8835 106.134 88.0545 106.443C88.2245 106.753 88.3095 107.168 88.3095 107.688V112H87.3045V111.114H87.2535C87.1845 111.256 87.0715 111.408 86.9125 111.57C86.7535 111.732 86.5415 111.869 86.2775 111.983C86.0135 112.097 85.6905 112.153 85.3095 112.153ZM85.4635 111.25C85.8615 111.25 86.1965 111.172 86.4695 111.016C86.7445 110.859 86.9525 110.658 87.0915 110.411C87.2335 110.163 87.3045 109.903 87.3045 109.631V108.71C87.2615 108.761 87.1675 108.808 87.0235 108.851C86.8815 108.891 86.7165 108.926 86.5285 108.957C86.3445 108.986 86.1635 109.011 85.9875 109.034C85.8145 109.054 85.6735 109.071 85.5655 109.085C85.3045 109.119 85.0595 109.175 84.8325 109.251C84.6085 109.325 84.4265 109.437 84.2875 109.588C84.1505 109.736 84.0825 109.937 84.0825 110.193C84.0825 110.543 84.2115 110.807 84.4705 110.986C84.7315 111.162 85.0625 111.25 85.4635 111.25ZM95.2635 105.455L92.8435 112H91.8205L89.3995 105.455H90.4905L92.2975 110.67H92.3655L94.1725 105.455H95.2635ZM99.1005 112.136C98.4705 112.136 97.9265 111.997 97.4685 111.719C97.0145 111.438 96.6635 111.045 96.4165 110.543C96.1715 110.037 96.0495 109.449 96.0495 108.778C96.0495 108.108 96.1715 107.517 96.4165 107.006C96.6635 106.491 97.0075 106.091 97.4475 105.804C97.8905 105.514 98.4075 105.369 98.9985 105.369C99.3395 105.369 99.6765 105.426 100.008 105.54C100.34 105.653 100.643 105.838 100.916 106.094C101.188 106.347 101.406 106.682 101.568 107.099C101.73 107.517 101.811 108.031 101.811 108.642V109.068H96.7655V108.199H100.788C100.788 107.83 100.714 107.5 100.566 107.21C100.421 106.92 100.214 106.692 99.9445 106.524C99.6775 106.357 99.3625 106.273 98.9985 106.273C98.5975 106.273 98.2515 106.372 97.9585 106.571C97.6695 106.767 97.4455 107.023 97.2895 107.338C97.1335 107.653 97.0555 107.991 97.0555 108.352V108.932C97.0555 109.426 97.1405 109.845 97.3115 110.189C97.4845 110.53 97.7245 110.79 98.0315 110.969C98.3385 111.145 98.6945 111.233 99.1005 111.233C99.3655 111.233 99.6035 111.196 99.8165 111.122C100.032 111.045 100.218 110.932 100.374 110.781C100.531 110.628 100.651 110.437 100.737 110.21L101.708 110.483C101.606 110.812 101.434 111.102 101.193 111.352C100.951 111.599 100.653 111.793 100.298 111.932C99.9435 112.068 99.5445 112.136 99.1005 112.136ZM108.642 112.153C108.227 112.153 107.85 112.075 107.512 111.919C107.174 111.76 106.906 111.531 106.707 111.233C106.508 110.932 106.409 110.568 106.409 110.142C106.409 109.767 106.482 109.463 106.63 109.23C106.778 108.994 106.975 108.81 107.222 108.676C107.47 108.543 107.742 108.443 108.041 108.378C108.342 108.31 108.644 108.256 108.948 108.216C109.346 108.165 109.669 108.126 109.916 108.101C110.166 108.072 110.347 108.026 110.461 107.96C110.578 107.895 110.636 107.781 110.636 107.619V107.585C110.636 107.165 110.521 106.838 110.291 106.605C110.063 106.372 109.718 106.256 109.255 106.256C108.775 106.256 108.399 106.361 108.126 106.571C107.853 106.781 107.661 107.006 107.551 107.244L106.596 106.903C106.767 106.506 106.994 106.196 107.278 105.974C107.565 105.75 107.877 105.594 108.215 105.506C108.556 105.415 108.892 105.369 109.221 105.369C109.431 105.369 109.673 105.395 109.945 105.446C110.221 105.494 110.487 105.595 110.742 105.749C111.001 105.902 111.215 106.134 111.386 106.443C111.556 106.753 111.642 107.168 111.642 107.688V112H110.636V111.114H110.585C110.517 111.256 110.403 111.408 110.244 111.57C110.085 111.732 109.873 111.869 109.609 111.983C109.345 112.097 109.022 112.153 108.642 112.153ZM108.795 111.25C109.193 111.25 109.528 111.172 109.801 111.016C110.076 110.859 110.284 110.658 110.423 110.411C110.565 110.163 110.636 109.903 110.636 109.631V108.71C110.593 108.761 110.499 108.808 110.355 108.851C110.213 108.891 110.048 108.926 109.86 108.957C109.676 108.986 109.495 109.011 109.319 109.034C109.146 109.054 109.005 109.071 108.897 109.085C108.636 109.119 108.392 109.175 108.164 109.251C107.94 109.325 107.758 109.437 107.619 109.588C107.482 109.736 107.414 109.937 107.414 110.193C107.414 110.543 107.544 110.807 107.802 110.986C108.063 111.162 108.394 111.25 108.795 111.25ZM114.483 108.062V112H113.477V105.455H114.449V106.477H114.534C114.687 106.145 114.92 105.878 115.233 105.676C115.545 105.472 115.949 105.369 116.443 105.369C116.886 105.369 117.274 105.46 117.606 105.642C117.939 105.821 118.197 106.094 118.382 106.46C118.567 106.824 118.659 107.284 118.659 107.841V112H117.653V107.909C117.653 107.395 117.52 106.994 117.253 106.707C116.986 106.418 116.619 106.273 116.153 106.273C115.832 106.273 115.545 106.342 115.292 106.482C115.042 106.621 114.845 106.824 114.7 107.091C114.555 107.358 114.483 107.682 114.483 108.062ZM120.91 114.455C120.74 114.455 120.588 114.44 120.454 114.412C120.32 114.386 120.228 114.361 120.177 114.335L120.433 113.449C120.677 113.511 120.893 113.534 121.08 113.517C121.268 113.5 121.434 113.416 121.579 113.266C121.727 113.118 121.862 112.878 121.984 112.545L122.171 112.034L119.751 105.455H120.842L122.649 110.67H122.717L124.524 105.455H125.615L122.836 112.955C122.711 113.293 122.556 113.572 122.372 113.794C122.187 114.018 121.972 114.185 121.728 114.293C121.487 114.401 121.214 114.455 120.91 114.455ZM131.323 108.062V112H130.317V105.455H131.289V106.477H131.374C131.527 106.145 131.76 105.878 132.073 105.676C132.385 105.472 132.789 105.369 133.283 105.369C133.726 105.369 134.114 105.46 134.446 105.642C134.779 105.821 135.037 106.094 135.222 106.46C135.406 106.824 135.499 107.284 135.499 107.841V112H134.493V107.909C134.493 107.395 134.36 106.994 134.093 106.707C133.825 106.418 133.459 106.273 132.993 106.273C132.672 106.273 132.385 106.342 132.132 106.482C131.882 106.621 131.685 106.824 131.54 107.091C131.395 107.358 131.323 107.682 131.323 108.062ZM139.996 112.136C139.405 112.136 138.886 111.996 138.44 111.714C137.997 111.433 137.65 111.04 137.4 110.534C137.153 110.028 137.03 109.437 137.03 108.761C137.03 108.08 137.153 107.484 137.4 106.976C137.65 106.467 137.997 106.072 138.44 105.791C138.886 105.51 139.405 105.369 139.996 105.369C140.586 105.369 141.104 105.51 141.547 105.791C141.993 106.072 142.339 106.467 142.586 106.976C142.836 107.484 142.961 108.08 142.961 108.761C142.961 109.437 142.836 110.028 142.586 110.534C142.339 111.04 141.993 111.433 141.547 111.714C141.104 111.996 140.586 112.136 139.996 112.136ZM139.996 111.233C140.444 111.233 140.814 111.118 141.104 110.888C141.393 110.658 141.608 110.355 141.747 109.98C141.886 109.605 141.956 109.199 141.956 108.761C141.956 108.324 141.886 107.916 141.747 107.538C141.608 107.161 141.393 106.855 141.104 106.622C140.814 106.389 140.444 106.273 139.996 106.273C139.547 106.273 139.177 106.389 138.888 106.622C138.598 106.855 138.383 107.161 138.244 107.538C138.105 107.916 138.035 108.324 138.035 108.761C138.035 109.199 138.105 109.605 138.244 109.98C138.383 110.355 138.598 110.658 138.888 110.888C139.177 111.118 139.547 111.233 139.996 111.233ZM147.343 105.455V106.307H143.951V105.455H147.343ZM144.94 103.886H145.945V110.125C145.945 110.409 145.987 110.622 146.069 110.764C146.154 110.903 146.262 110.997 146.393 111.045C146.526 111.091 146.667 111.114 146.815 111.114C146.926 111.114 147.017 111.108 147.088 111.097C147.159 111.082 147.215 111.071 147.258 111.062L147.463 111.966C147.394 111.991 147.299 112.017 147.177 112.043C147.055 112.071 146.9 112.085 146.713 112.085C146.428 112.085 146.15 112.024 145.877 111.902C145.607 111.78 145.383 111.594 145.204 111.344C145.028 111.094 144.94 110.778 144.94 110.398V103.886ZM148.856 112V105.455H149.862V112H148.856ZM149.367 104.364C149.171 104.364 149.002 104.297 148.86 104.163C148.721 104.03 148.651 103.869 148.651 103.682C148.651 103.494 148.721 103.334 148.86 103.2C149.002 103.067 149.171 103 149.367 103C149.563 103 149.731 103.067 149.87 103.2C150.012 103.334 150.083 103.494 150.083 103.682C150.083 103.869 150.012 104.03 149.87 104.163C149.731 104.297 149.563 104.364 149.367 104.364ZM154.363 112.136C153.749 112.136 153.221 111.991 152.778 111.702C152.334 111.412 151.993 111.013 151.755 110.504C151.516 109.996 151.397 109.415 151.397 108.761C151.397 108.097 151.519 107.51 151.763 107.001C152.01 106.49 152.354 106.091 152.795 105.804C153.238 105.514 153.755 105.369 154.346 105.369C154.806 105.369 155.221 105.455 155.59 105.625C155.959 105.795 156.262 106.034 156.498 106.341C156.733 106.648 156.88 107.006 156.937 107.415H155.931C155.854 107.116 155.684 106.852 155.42 106.622C155.158 106.389 154.806 106.273 154.363 106.273C153.971 106.273 153.627 106.375 153.331 106.58C153.039 106.781 152.81 107.067 152.645 107.436C152.483 107.803 152.403 108.233 152.403 108.727C152.403 109.233 152.482 109.673 152.641 110.048C152.803 110.423 153.03 110.714 153.323 110.922C153.618 111.129 153.965 111.233 154.363 111.233C154.624 111.233 154.861 111.188 155.074 111.097C155.287 111.006 155.468 110.875 155.616 110.705C155.763 110.534 155.868 110.33 155.931 110.091H156.937C156.88 110.477 156.739 110.825 156.515 111.135C156.293 111.442 155.999 111.686 155.633 111.868C155.269 112.047 154.846 112.136 154.363 112.136ZM161.151 112.136C160.52 112.136 159.976 111.997 159.519 111.719C159.064 111.438 158.714 111.045 158.466 110.543C158.222 110.037 158.1 109.449 158.1 108.778C158.1 108.108 158.222 107.517 158.466 107.006C158.714 106.491 159.057 106.091 159.498 105.804C159.941 105.514 160.458 105.369 161.049 105.369C161.39 105.369 161.726 105.426 162.059 105.54C162.391 105.653 162.694 105.838 162.966 106.094C163.239 106.347 163.456 106.682 163.618 107.099C163.78 107.517 163.861 108.031 163.861 108.642V109.068H158.816V108.199H162.839C162.839 107.83 162.765 107.5 162.617 107.21C162.472 106.92 162.265 106.692 161.995 106.524C161.728 106.357 161.412 106.273 161.049 106.273C160.648 106.273 160.302 106.372 160.009 106.571C159.719 106.767 159.496 107.023 159.34 107.338C159.184 107.653 159.106 107.991 159.106 108.352V108.932C159.106 109.426 159.191 109.845 159.361 110.189C159.535 110.53 159.775 110.79 160.081 110.969C160.388 111.145 160.745 111.233 161.151 111.233C161.415 111.233 161.654 111.196 161.867 111.122C162.083 111.045 162.269 110.932 162.425 110.781C162.581 110.628 162.702 110.437 162.787 110.21L163.759 110.483C163.657 110.812 163.485 111.102 163.243 111.352C163.002 111.599 162.704 111.793 162.349 111.932C161.993 112.068 161.594 112.136 161.151 112.136ZM171.681 105.455V106.307H168.153V105.455H171.681ZM169.209 112V104.551C169.209 104.176 169.297 103.864 169.474 103.614C169.65 103.364 169.878 103.176 170.16 103.051C170.441 102.926 170.738 102.864 171.05 102.864C171.297 102.864 171.499 102.884 171.655 102.923C171.812 102.963 171.928 103 172.005 103.034L171.715 103.903C171.664 103.886 171.593 103.865 171.502 103.839C171.414 103.814 171.297 103.801 171.153 103.801C170.82 103.801 170.58 103.885 170.432 104.053C170.287 104.22 170.215 104.466 170.215 104.79V112H169.209ZM175.48 112.136C174.889 112.136 174.371 111.996 173.925 111.714C173.481 111.433 173.135 111.04 172.885 110.534C172.638 110.028 172.514 109.437 172.514 108.761C172.514 108.08 172.638 107.484 172.885 106.976C173.135 106.467 173.481 106.072 173.925 105.791C174.371 105.51 174.889 105.369 175.48 105.369C176.071 105.369 176.588 105.51 177.031 105.791C177.477 106.072 177.824 106.467 178.071 106.976C178.321 107.484 178.446 108.08 178.446 108.761C178.446 109.437 178.321 110.028 178.071 110.534C177.824 111.04 177.477 111.433 177.031 111.714C176.588 111.996 176.071 112.136 175.48 112.136ZM175.48 111.233C175.929 111.233 176.298 111.118 176.588 110.888C176.878 110.658 177.092 110.355 177.231 109.98C177.371 109.605 177.44 109.199 177.44 108.761C177.44 108.324 177.371 107.916 177.231 107.538C177.092 107.161 176.878 106.855 176.588 106.622C176.298 106.389 175.929 106.273 175.48 106.273C175.031 106.273 174.662 106.389 174.372 106.622C174.082 106.855 173.868 107.161 173.729 107.538C173.589 107.916 173.52 108.324 173.52 108.761C173.52 109.199 173.589 109.605 173.729 109.98C173.868 110.355 174.082 110.658 174.372 110.888C174.662 111.118 175.031 111.233 175.48 111.233ZM179.981 112V105.455H180.953V106.443H181.021C181.14 106.119 181.356 105.857 181.669 105.655C181.981 105.453 182.333 105.352 182.725 105.352C182.799 105.352 182.892 105.354 183.002 105.357C183.113 105.359 183.197 105.364 183.254 105.369V106.392C183.22 106.384 183.142 106.371 183.019 106.354C182.9 106.334 182.774 106.324 182.64 106.324C182.322 106.324 182.038 106.391 181.788 106.524C181.541 106.655 181.345 106.837 181.2 107.07C181.058 107.3 180.987 107.562 180.987 107.858V112H179.981ZM28.6955 129.455C28.5255 129.455 28.3735 129.44 28.2395 129.412C28.1065 129.386 28.0135 129.361 27.9625 129.335L28.2185 128.449C28.4625 128.511 28.6785 128.534 28.8665 128.517C29.0535 128.5 29.2195 128.416 29.3645 128.266C29.5125 128.118 29.6475 127.878 29.7695 127.545L29.9565 127.034L27.5365 120.455H28.6275L30.4345 125.67H30.5025L32.3095 120.455H33.4005L30.6215 127.955C30.4965 128.293 30.3415 128.572 30.1575 128.794C29.9725 129.018 29.7585 129.185 29.5135 129.293C29.2725 129.401 28.9995 129.455 28.6955 129.455ZM37.1525 127.136C36.5615 127.136 36.0425 126.996 35.5965 126.714C35.1535 126.433 34.8075 126.04 34.5575 125.534C34.3095 125.028 34.1865 124.437 34.1865 123.761C34.1865 123.08 34.3095 122.484 34.5575 121.976C34.8075 121.467 35.1535 121.072 35.5965 120.791C36.0425 120.51 36.5615 120.369 37.1525 120.369C37.7435 120.369 38.2605 120.51 38.7035 120.791C39.1495 121.072 39.4965 121.467 39.7435 121.976C39.9935 122.484 40.1185 123.08 40.1185 123.761C40.1185 124.437 39.9935 125.028 39.7435 125.534C39.4965 126.04 39.1495 126.433 38.7035 126.714C38.2605 126.996 37.7435 127.136 37.1525 127.136ZM37.1525 126.233C37.6015 126.233 37.9705 126.118 38.2605 125.888C38.5505 125.658 38.7645 125.355 38.9035 124.98C39.0425 124.605 39.1125 124.199 39.1125 123.761C39.1125 123.324 39.0425 122.916 38.9035 122.538C38.7645 122.161 38.5505 121.855 38.2605 121.622C37.9705 121.389 37.6015 121.273 37.1525 121.273C36.7035 121.273 36.3345 121.389 36.0445 121.622C35.7545 121.855 35.5405 122.161 35.4005 122.538C35.2615 122.916 35.1925 123.324 35.1925 123.761C35.1925 124.199 35.2615 124.605 35.4005 124.98C35.5405 125.355 35.7545 125.658 36.0445 125.888C36.3345 126.118 36.7035 126.233 37.1525 126.233ZM45.7785 124.324V120.455H46.7845V127H45.7785V125.892H45.7105C45.5565 126.224 45.3185 126.507 44.9945 126.74C44.6705 126.97 44.2615 127.085 43.7675 127.085C43.3575 127.085 42.9945 126.996 42.6765 126.817C42.3575 126.635 42.1075 126.362 41.9265 125.999C41.7445 125.632 41.6535 125.17 41.6535 124.614V120.455H42.6595V124.545C42.6595 125.023 42.7925 125.403 43.0595 125.688C43.3295 125.972 43.6735 126.114 44.0905 126.114C44.3405 126.114 44.5955 126.05 44.8535 125.922C45.1155 125.794 45.3335 125.598 45.5095 125.334C45.6885 125.07 45.7785 124.733 45.7785 124.324ZM50.1265 125.807L50.0575 126.267C50.0095 126.591 49.9355 126.938 49.8365 127.307C49.7395 127.676 49.6385 128.024 49.5335 128.351C49.4285 128.678 49.3415 128.938 49.2735 129.131H48.5065C48.5435 128.949 48.5915 128.709 48.6515 128.411C48.7115 128.112 48.7705 127.778 48.8305 127.409C48.8935 127.043 48.9445 126.668 48.9835 126.284L49.0355 125.807H50.1265ZM58.2105 120.455V121.307H54.8185V120.455H58.2105ZM55.8075 118.886H56.8135V125.125C56.8135 125.409 56.8545 125.622 56.9365 125.764C57.0215 125.903 57.1295 125.997 57.2605 126.045C57.3945 126.091 57.5345 126.114 57.6825 126.114C57.7935 126.114 57.8845 126.108 57.9555 126.097C58.0265 126.082 58.0835 126.071 58.1255 126.062L58.3305 126.966C58.2625 126.991 58.1665 127.017 58.0445 127.043C57.9225 127.071 57.7675 127.085 57.5805 127.085C57.2965 127.085 57.0175 127.024 56.7445 126.902C56.4755 126.78 56.2505 126.594 56.0715 126.344C55.8955 126.094 55.8075 125.778 55.8075 125.398V118.886ZM59.7235 127V120.455H60.7295V127H59.7235ZM60.2355 119.364C60.0395 119.364 59.8695 119.297 59.7275 119.163C59.5885 119.03 59.5195 118.869 59.5195 118.682C59.5195 118.494 59.5885 118.334 59.7275 118.2C59.8695 118.067 60.0395 118 60.2355 118C60.4315 118 60.5985 118.067 60.7375 118.2C60.8795 118.334 60.9505 118.494 60.9505 118.682C60.9505 118.869 60.8795 119.03 60.7375 119.163C60.5985 119.297 60.4315 119.364 60.2355 119.364ZM63.5775 118.273V127H62.5715V118.273H63.5775ZM66.4245 118.273V127H65.4195V118.273H66.4245ZM74.4885 120.455V121.307H71.0965V120.455H74.4885ZM72.0845 118.886H73.0905V125.125C73.0905 125.409 73.1315 125.622 73.2145 125.764C73.2995 125.903 73.4075 125.997 73.5375 126.045C73.6715 126.091 73.8125 126.114 73.9595 126.114C74.0705 126.114 74.1615 126.108 74.2325 126.097C74.3035 126.082 74.3605 126.071 74.4035 126.062L74.6075 126.966C74.5395 126.991 74.4445 127.017 74.3225 127.043C74.1995 127.071 74.0455 127.085 73.8575 127.085C73.5735 127.085 73.2955 127.024 73.0225 126.902C72.7525 126.78 72.5285 126.594 72.3495 126.344C72.1725 126.094 72.0845 125.778 72.0845 125.398V118.886ZM77.1475 123.062V127H76.1415V118.273H77.1475V121.477H77.2325C77.3855 121.139 77.6165 120.871 77.9225 120.672C78.2325 120.47 78.6445 120.369 79.1585 120.369C79.6045 120.369 79.9955 120.459 80.3305 120.638C80.6655 120.814 80.9255 121.085 81.1105 121.452C81.2975 121.815 81.3915 122.278 81.3915 122.841V127H80.3855V122.909C80.3855 122.389 80.2515 121.987 79.9815 121.703C79.7145 121.416 79.3435 121.273 78.8685 121.273C78.5395 121.273 78.2435 121.342 77.9825 121.482C77.7245 121.621 77.5195 121.824 77.3685 122.091C77.2215 122.358 77.1475 122.682 77.1475 123.062ZM85.9755 127.136C85.3455 127.136 84.8015 126.997 84.3435 126.719C83.8895 126.438 83.5385 126.045 83.2915 125.543C83.0465 125.037 82.9245 124.449 82.9245 123.778C82.9245 123.108 83.0465 122.517 83.2915 122.006C83.5385 121.491 83.8825 121.091 84.3225 120.804C84.7655 120.514 85.2825 120.369 85.8735 120.369C86.2145 120.369 86.5515 120.426 86.8835 120.54C87.2155 120.653 87.5185 120.838 87.7915 121.094C88.0635 121.347 88.2815 121.682 88.4435 122.099C88.6055 122.517 88.6865 123.031 88.6865 123.642V124.068H83.6405V123.199H87.6635C87.6635 122.83 87.5895 122.5 87.4415 122.21C87.2965 121.92 87.0895 121.692 86.8195 121.524C86.5525 121.357 86.2375 121.273 85.8735 121.273C85.4725 121.273 85.1265 121.372 84.8335 121.571C84.5445 121.767 84.3205 122.023 84.1645 122.338C84.0085 122.653 83.9305 122.991 83.9305 123.352V123.932C83.9305 124.426 84.0155 124.845 84.1865 125.189C84.3595 125.53 84.5995 125.79 84.9065 125.969C85.2135 126.145 85.5695 126.233 85.9755 126.233C86.2405 126.233 86.4785 126.196 86.6915 126.122C86.9075 126.045 87.0935 125.932 87.2495 125.781C87.4065 125.628 87.5265 125.437 87.6125 125.21L88.5835 125.483C88.4815 125.812 88.3095 126.102 88.0685 126.352C87.8265 126.599 87.5285 126.793 87.1735 126.932C86.8185 127.068 86.4195 127.136 85.9755 127.136ZM91.2215 123.062V127H90.2155V120.455H91.1875V121.477H91.2725C91.4265 121.145 91.6595 120.878 91.9715 120.676C92.2845 120.472 92.6875 120.369 93.1815 120.369C93.6245 120.369 94.0125 120.46 94.3455 120.642C94.6775 120.821 94.9365 121.094 95.1205 121.46C95.3055 121.824 95.3975 122.284 95.3975 122.841V127H94.3925V122.909C94.3925 122.395 94.2585 121.994 93.9915 121.707C93.7245 121.418 93.3575 121.273 92.8925 121.273C92.5705 121.273 92.2845 121.342 92.0315 121.482C91.7815 121.621 91.5835 121.824 91.4385 122.091C91.2945 122.358 91.2215 122.682 91.2215 123.062ZM101.258 129.455C101.087 129.455 100.935 129.44 100.802 129.412C100.668 129.386 100.576 129.361 100.525 129.335L100.78 128.449C101.025 128.511 101.241 128.534 101.428 128.517C101.616 128.5 101.782 128.416 101.927 128.266C102.074 128.118 102.209 127.878 102.331 127.545L102.519 127.034L100.099 120.455H101.189L102.996 125.67H103.064L104.871 120.455H105.962L103.184 127.955C103.059 128.293 102.904 128.572 102.719 128.794C102.535 129.018 102.32 129.185 102.076 129.293C101.834 129.401 101.562 129.455 101.258 129.455ZM109.714 127.136C109.123 127.136 108.605 126.996 108.159 126.714C107.716 126.433 107.369 126.04 107.119 125.534C106.872 125.028 106.748 124.437 106.748 123.761C106.748 123.08 106.872 122.484 107.119 121.976C107.369 121.467 107.716 121.072 108.159 120.791C108.605 120.51 109.123 120.369 109.714 120.369C110.305 120.369 110.822 120.51 111.265 120.791C111.711 121.072 112.058 121.467 112.305 121.976C112.555 122.484 112.68 123.08 112.68 123.761C112.68 124.437 112.555 125.028 112.305 125.534C112.058 126.04 111.711 126.433 111.265 126.714C110.822 126.996 110.305 127.136 109.714 127.136ZM109.714 126.233C110.163 126.233 110.532 126.118 110.822 125.888C111.112 125.658 111.327 125.355 111.466 124.98C111.605 124.605 111.675 124.199 111.675 123.761C111.675 123.324 111.605 122.916 111.466 122.538C111.327 122.161 111.112 121.855 110.822 121.622C110.532 121.389 110.163 121.273 109.714 121.273C109.265 121.273 108.896 121.389 108.606 121.622C108.317 121.855 108.102 122.161 107.963 122.538C107.824 122.916 107.754 123.324 107.754 123.761C107.754 124.199 107.824 124.605 107.963 124.98C108.102 125.355 108.317 125.658 108.606 125.888C108.896 126.118 109.265 126.233 109.714 126.233ZM118.34 124.324V120.455H119.346V127H118.34V125.892H118.272C118.119 126.224 117.88 126.507 117.556 126.74C117.232 126.97 116.823 127.085 116.329 127.085C115.92 127.085 115.556 126.996 115.238 126.817C114.92 126.635 114.67 126.362 114.488 125.999C114.306 125.632 114.215 125.17 114.215 124.614V120.455H115.221V124.545C115.221 125.023 115.355 125.403 115.622 125.688C115.892 125.972 116.235 126.114 116.653 126.114C116.903 126.114 117.157 126.05 117.416 125.922C117.677 125.794 117.896 125.598 118.072 125.334C118.251 125.07 118.34 124.733 118.34 124.324ZM127.222 127.136C126.608 127.136 126.08 126.991 125.637 126.702C125.194 126.412 124.853 126.013 124.614 125.504C124.376 124.996 124.256 124.415 124.256 123.761C124.256 123.097 124.378 122.51 124.623 122.001C124.87 121.49 125.214 121.091 125.654 120.804C126.097 120.514 126.614 120.369 127.205 120.369C127.665 120.369 128.08 120.455 128.449 120.625C128.819 120.795 129.121 121.034 129.357 121.341C129.593 121.648 129.739 122.006 129.796 122.415H128.79C128.714 122.116 128.543 121.852 128.279 121.622C128.018 121.389 127.665 121.273 127.222 121.273C126.83 121.273 126.486 121.375 126.191 121.58C125.898 121.781 125.67 122.067 125.505 122.436C125.343 122.803 125.262 123.233 125.262 123.727C125.262 124.233 125.341 124.673 125.501 125.048C125.662 125.423 125.89 125.714 126.182 125.922C126.478 126.129 126.824 126.233 127.222 126.233C127.483 126.233 127.721 126.188 127.934 126.097C128.147 126.006 128.327 125.875 128.475 125.705C128.623 125.534 128.728 125.33 128.79 125.091H129.796C129.739 125.477 129.599 125.825 129.374 126.135C129.153 126.442 128.858 126.686 128.492 126.868C128.128 127.047 127.705 127.136 127.222 127.136ZM133.192 127.153C132.778 127.153 132.401 127.075 132.063 126.919C131.725 126.76 131.456 126.531 131.258 126.233C131.059 125.932 130.959 125.568 130.959 125.142C130.959 124.767 131.033 124.463 131.181 124.23C131.329 123.994 131.526 123.81 131.773 123.676C132.02 123.543 132.293 123.443 132.591 123.378C132.893 123.31 133.195 123.256 133.499 123.216C133.897 123.165 134.219 123.126 134.466 123.101C134.716 123.072 134.898 123.026 135.012 122.96C135.128 122.895 135.187 122.781 135.187 122.619V122.585C135.187 122.165 135.072 121.838 134.841 121.605C134.614 121.372 134.269 121.256 133.806 121.256C133.326 121.256 132.949 121.361 132.677 121.571C132.404 121.781 132.212 122.006 132.101 122.244L131.147 121.903C131.317 121.506 131.545 121.196 131.829 120.974C132.116 120.75 132.428 120.594 132.766 120.506C133.107 120.415 133.442 120.369 133.772 120.369C133.982 120.369 134.224 120.395 134.496 120.446C134.772 120.494 135.037 120.595 135.293 120.749C135.552 120.902 135.766 121.134 135.937 121.443C136.107 121.753 136.192 122.168 136.192 122.688V127H135.187V126.114H135.135C135.067 126.256 134.954 126.408 134.795 126.57C134.635 126.732 134.424 126.869 134.16 126.983C133.895 127.097 133.573 127.153 133.192 127.153ZM133.346 126.25C133.743 126.25 134.079 126.172 134.351 126.016C134.627 125.859 134.834 125.658 134.974 125.411C135.116 125.163 135.187 124.903 135.187 124.631V123.71C135.144 123.761 135.05 123.808 134.905 123.851C134.763 123.891 134.599 123.926 134.411 123.957C134.226 123.986 134.046 124.011 133.87 124.034C133.697 124.054 133.556 124.071 133.448 124.085C133.187 124.119 132.942 124.175 132.715 124.251C132.491 124.325 132.309 124.437 132.17 124.588C132.033 124.736 131.965 124.937 131.965 125.193C131.965 125.543 132.094 125.807 132.353 125.986C132.614 126.162 132.945 126.25 133.346 126.25ZM139.034 123.062V127H138.028V120.455H138.999V121.477H139.085C139.238 121.145 139.471 120.878 139.784 120.676C140.096 120.472 140.499 120.369 140.994 120.369C141.437 120.369 141.825 120.46 142.157 120.642C142.49 120.821 142.748 121.094 142.933 121.46C143.117 121.824 143.21 122.284 143.21 122.841V127H142.204V122.909C142.204 122.395 142.07 121.994 141.803 121.707C141.536 121.418 141.17 121.273 140.704 121.273C140.383 121.273 140.096 121.342 139.843 121.482C139.593 121.621 139.396 121.824 139.251 122.091C139.106 122.358 139.034 122.682 139.034 123.062ZM153.059 121.92L152.155 122.176C152.099 122.026 152.015 121.879 151.904 121.737C151.796 121.592 151.648 121.473 151.461 121.379C151.273 121.286 151.033 121.239 150.741 121.239C150.34 121.239 150.006 121.331 149.739 121.516C149.475 121.697 149.343 121.929 149.343 122.21C149.343 122.46 149.434 122.658 149.616 122.803C149.797 122.947 150.081 123.068 150.468 123.165L151.439 123.403C152.025 123.545 152.461 123.763 152.748 124.055C153.035 124.345 153.178 124.719 153.178 125.176C153.178 125.551 153.07 125.886 152.854 126.182C152.641 126.477 152.343 126.71 151.959 126.881C151.576 127.051 151.13 127.136 150.621 127.136C149.954 127.136 149.401 126.991 148.964 126.702C148.526 126.412 148.249 125.989 148.133 125.432L149.087 125.193C149.178 125.545 149.35 125.81 149.603 125.986C149.858 126.162 150.192 126.25 150.604 126.25C151.073 126.25 151.445 126.151 151.721 125.952C151.999 125.75 152.138 125.509 152.138 125.227C152.138 125 152.059 124.81 151.9 124.656C151.741 124.5 151.496 124.384 151.167 124.307L150.076 124.051C149.476 123.909 149.036 123.689 148.755 123.391C148.476 123.089 148.337 122.713 148.337 122.261C148.337 121.892 148.441 121.565 148.648 121.281C148.858 120.997 149.144 120.774 149.505 120.612C149.868 120.45 150.28 120.369 150.741 120.369C151.388 120.369 151.897 120.511 152.266 120.795C152.638 121.08 152.903 121.455 153.059 121.92ZM155.698 123.062V127H154.692V118.273H155.698V121.477H155.783C155.936 121.139 156.166 120.871 156.473 120.672C156.783 120.47 157.195 120.369 157.709 120.369C158.155 120.369 158.546 120.459 158.881 120.638C159.216 120.814 159.476 121.085 159.661 121.452C159.848 121.815 159.942 122.278 159.942 122.841V127H158.936V122.909C158.936 122.389 158.801 121.987 158.531 121.703C158.264 121.416 157.894 121.273 157.419 121.273C157.09 121.273 156.794 121.342 156.533 121.482C156.274 121.621 156.07 121.824 155.919 122.091C155.771 122.358 155.698 122.682 155.698 123.062ZM163.708 127.153C163.293 127.153 162.917 127.075 162.579 126.919C162.241 126.76 161.972 126.531 161.773 126.233C161.574 125.932 161.475 125.568 161.475 125.142C161.475 124.767 161.549 124.463 161.697 124.23C161.844 123.994 162.042 123.81 162.289 123.676C162.536 123.543 162.809 123.443 163.107 123.378C163.408 123.31 163.711 123.256 164.015 123.216C164.412 123.165 164.735 123.126 164.982 123.101C165.232 123.072 165.414 123.026 165.528 122.96C165.644 122.895 165.702 122.781 165.702 122.619V122.585C165.702 122.165 165.587 121.838 165.357 121.605C165.13 121.372 164.785 121.256 164.322 121.256C163.841 121.256 163.465 121.361 163.192 121.571C162.92 121.781 162.728 122.006 162.617 122.244L161.662 121.903C161.833 121.506 162.06 121.196 162.344 120.974C162.631 120.75 162.944 120.594 163.282 120.506C163.623 120.415 163.958 120.369 164.287 120.369C164.498 120.369 164.739 120.395 165.012 120.446C165.287 120.494 165.553 120.595 165.809 120.749C166.067 120.902 166.282 121.134 166.452 121.443C166.623 121.753 166.708 122.168 166.708 122.688V127H165.702V126.114H165.651C165.583 126.256 165.469 126.408 165.31 126.57C165.151 126.732 164.939 126.869 164.675 126.983C164.411 127.097 164.089 127.153 163.708 127.153ZM163.861 126.25C164.259 126.25 164.594 126.172 164.867 126.016C165.143 125.859 165.35 125.658 165.489 125.411C165.631 125.163 165.702 124.903 165.702 124.631V123.71C165.66 123.761 165.566 123.808 165.421 123.851C165.279 123.891 165.114 123.926 164.927 123.957C164.742 123.986 164.562 124.011 164.385 124.034C164.212 124.054 164.072 124.071 163.964 124.085C163.702 124.119 163.458 124.175 163.231 124.251C163.006 124.325 162.824 124.437 162.685 124.588C162.549 124.736 162.481 124.937 162.481 125.193C162.481 125.543 162.61 125.807 162.868 125.986C163.13 126.162 163.461 126.25 163.861 126.25ZM168.544 127V120.455H169.515V121.443H169.583C169.703 121.119 169.919 120.857 170.231 120.655C170.544 120.453 170.896 120.352 171.288 120.352C171.362 120.352 171.454 120.354 171.565 120.357C171.676 120.359 171.759 120.364 171.816 120.369V121.392C171.782 121.384 171.704 121.371 171.582 121.354C171.463 121.334 171.336 121.324 171.203 121.324C170.884 121.324 170.6 121.391 170.35 121.524C170.103 121.655 169.907 121.837 169.762 122.07C169.62 122.3 169.549 122.562 169.549 122.858V127H168.544ZM175.553 127.136C174.923 127.136 174.379 126.997 173.921 126.719C173.467 126.438 173.116 126.045 172.869 125.543C172.624 125.037 172.502 124.449 172.502 123.778C172.502 123.108 172.624 122.517 172.869 122.006C173.116 121.491 173.46 121.091 173.9 120.804C174.343 120.514 174.86 120.369 175.451 120.369C175.792 120.369 176.129 120.426 176.461 120.54C176.794 120.653 177.096 120.838 177.369 121.094C177.642 121.347 177.859 121.682 178.021 122.099C178.183 122.517 178.264 123.031 178.264 123.642V124.068H173.218V123.199H177.241C177.241 122.83 177.167 122.5 177.019 122.21C176.874 121.92 176.667 121.692 176.397 121.524C176.13 121.357 175.815 121.273 175.451 121.273C175.051 121.273 174.704 121.372 174.411 121.571C174.122 121.767 173.899 122.023 173.742 122.338C173.586 122.653 173.508 122.991 173.508 123.352V123.932C173.508 124.426 173.593 124.845 173.764 125.189C173.937 125.53 174.177 125.79 174.484 125.969C174.791 126.145 175.147 126.233 175.553 126.233C175.818 126.233 176.056 126.196 176.269 126.122C176.485 126.045 176.671 125.932 176.828 125.781C176.984 125.628 177.105 125.437 177.19 125.21L178.161 125.483C178.059 125.812 177.887 126.102 177.646 126.352C177.404 126.599 177.106 126.793 176.751 126.932C176.396 127.068 175.997 127.136 175.553 127.136ZM37.0515 144.455C36.8805 144.455 36.7285 144.44 36.5955 144.412C36.4615 144.386 36.3695 144.361 36.3185 144.335L36.5735 143.449C36.8185 143.511 37.0345 143.534 37.2215 143.517C37.4095 143.5 37.5755 143.416 37.7205 143.266C37.8675 143.118 38.0025 142.878 38.1245 142.545L38.3125 142.034L35.8925 135.455H36.9825L38.7895 140.67H38.8575L40.6645 135.455H41.7555L38.9775 142.955C38.8525 143.293 38.6975 143.572 38.5125 143.794C38.3285 144.018 38.1135 144.185 37.8695 144.293C37.6275 144.401 37.3555 144.455 37.0515 144.455ZM45.5075 142.136C44.9165 142.136 44.3985 141.996 43.9525 141.714C43.5095 141.433 43.1625 141.04 42.9125 140.534C42.6655 140.028 42.5415 139.437 42.5415 138.761C42.5415 138.08 42.6655 137.484 42.9125 136.976C43.1625 136.467 43.5095 136.072 43.9525 135.791C44.3985 135.51 44.9165 135.369 45.5075 135.369C46.0985 135.369 46.6155 135.51 47.0585 135.791C47.5045 136.072 47.8515 136.467 48.0985 136.976C48.3485 137.484 48.4735 138.08 48.4735 138.761C48.4735 139.437 48.3485 140.028 48.0985 140.534C47.8515 141.04 47.5045 141.433 47.0585 141.714C46.6155 141.996 46.0985 142.136 45.5075 142.136ZM45.5075 141.233C45.9565 141.233 46.3255 141.118 46.6155 140.888C46.9055 140.658 47.1195 140.355 47.2595 139.98C47.3985 139.605 47.4685 139.199 47.4685 138.761C47.4685 138.324 47.3985 137.916 47.2595 137.538C47.1195 137.161 46.9055 136.855 46.6155 136.622C46.3255 136.389 45.9565 136.273 45.5075 136.273C45.0585 136.273 44.6895 136.389 44.3995 136.622C44.1105 136.855 43.8955 137.161 43.7565 137.538C43.6175 137.916 43.5475 138.324 43.5475 138.761C43.5475 139.199 43.6175 139.605 43.7565 139.98C43.8955 140.355 44.1105 140.658 44.3995 140.888C44.6895 141.118 45.0585 141.233 45.5075 141.233ZM54.1335 139.324V135.455H55.1395V142H54.1335V140.892H54.0655C53.9125 141.224 53.6735 141.507 53.3495 141.74C53.0255 141.97 52.6165 142.085 52.1225 142.085C51.7135 142.085 51.3495 141.996 51.0315 141.817C50.7135 141.635 50.4635 141.362 50.2815 140.999C50.0995 140.632 50.0085 140.17 50.0085 139.614V135.455H51.0145V139.545C51.0145 140.023 51.1485 140.403 51.4155 140.688C51.6845 140.972 52.0285 141.114 52.4465 141.114C52.6965 141.114 52.9505 141.05 53.2095 140.922C53.4705 140.794 53.6895 140.598 53.8655 140.334C54.0445 140.07 54.1335 139.733 54.1335 139.324ZM56.9815 142V135.455H57.9535V136.443H58.0215C58.1405 136.119 58.3565 135.857 58.6695 135.655C58.9815 135.453 59.3335 135.352 59.7255 135.352C59.7995 135.352 59.8925 135.354 60.0025 135.357C60.1135 135.359 60.1975 135.364 60.2545 135.369V136.392C60.2205 136.384 60.1425 136.371 60.0195 136.354C59.9005 136.334 59.7745 136.324 59.6405 136.324C59.3225 136.324 59.0385 136.391 58.7885 136.524C58.5415 136.655 58.3455 136.837 58.2005 137.07C58.0585 137.3 57.9875 137.562 57.9875 137.858V142H56.9815ZM67.6675 135.455V136.307H64.2755V135.455H67.6675ZM65.2645 133.886H66.2705V140.125C66.2705 140.409 66.3115 140.622 66.3935 140.764C66.4795 140.903 66.5865 140.997 66.7175 141.045C66.8515 141.091 66.9915 141.114 67.1395 141.114C67.2505 141.114 67.3415 141.108 67.4125 141.097C67.4835 141.082 67.5405 141.071 67.5825 141.062L67.7875 141.966C67.7195 141.991 67.6235 142.017 67.5015 142.043C67.3795 142.071 67.2245 142.085 67.0375 142.085C66.7535 142.085 66.4745 142.024 66.2025 141.902C65.9325 141.78 65.7075 141.594 65.5285 141.344C65.3525 141.094 65.2645 140.778 65.2645 140.398V133.886ZM70.3275 138.062V142H69.3215V133.273H70.3275V136.477H70.4125C70.5655 136.139 70.7955 135.871 71.1025 135.672C71.4125 135.47 71.8245 135.369 72.3385 135.369C72.7845 135.369 73.1755 135.459 73.5105 135.638C73.8455 135.814 74.1055 136.085 74.2905 136.452C74.4775 136.815 74.5715 137.278 74.5715 137.841V142H73.5655V137.909C73.5655 137.389 73.4305 136.987 73.1605 136.703C72.8935 136.416 72.5235 136.273 72.0485 136.273C71.7195 136.273 71.4235 136.342 71.1625 136.482C70.9035 136.621 70.6995 136.824 70.5485 137.091C70.4005 137.358 70.3275 137.682 70.3275 138.062ZM79.0705 142.136C78.4795 142.136 77.9605 141.996 77.5145 141.714C77.0715 141.433 76.7255 141.04 76.4755 140.534C76.2275 140.028 76.1045 139.437 76.1045 138.761C76.1045 138.08 76.2275 137.484 76.4755 136.976C76.7255 136.467 77.0715 136.072 77.5145 135.791C77.9605 135.51 78.4795 135.369 79.0705 135.369C79.6615 135.369 80.1785 135.51 80.6215 135.791C81.0675 136.072 81.4145 136.467 81.6615 136.976C81.9115 137.484 82.0365 138.08 82.0365 138.761C82.0365 139.437 81.9115 140.028 81.6615 140.534C81.4145 141.04 81.0675 141.433 80.6215 141.714C80.1785 141.996 79.6615 142.136 79.0705 142.136ZM79.0705 141.233C79.5195 141.233 79.8885 141.118 80.1785 140.888C80.4685 140.658 80.6825 140.355 80.8215 139.98C80.9605 139.605 81.0305 139.199 81.0305 138.761C81.0305 138.324 80.9605 137.916 80.8215 137.538C80.6825 137.161 80.4685 136.855 80.1785 136.622C79.8885 136.389 79.5195 136.273 79.0705 136.273C78.6215 136.273 78.2525 136.389 77.9625 136.622C77.6725 136.855 77.4585 137.161 77.3185 137.538C77.1795 137.916 77.1105 138.324 77.1105 138.761C77.1105 139.199 77.1795 139.605 77.3185 139.98C77.4585 140.355 77.6725 140.658 77.9625 140.888C78.2525 141.118 78.6215 141.233 79.0705 141.233ZM87.6965 139.324V135.455H88.7025V142H87.6965V140.892H87.6285C87.4745 141.224 87.2365 141.507 86.9125 141.74C86.5885 141.97 86.1795 142.085 85.6845 142.085C85.2755 142.085 84.9125 141.996 84.5945 141.817C84.2755 141.635 84.0255 141.362 83.8445 140.999C83.6625 140.632 83.5715 140.17 83.5715 139.614V135.455H84.5775V139.545C84.5775 140.023 84.7105 140.403 84.9775 140.688C85.2475 140.972 85.5915 141.114 86.0085 141.114C86.2585 141.114 86.5135 141.05 86.7715 140.922C87.0325 140.794 87.2515 140.598 87.4275 140.334C87.6065 140.07 87.6965 139.733 87.6965 139.324ZM93.1865 144.591C92.7005 144.591 92.2825 144.528 91.9335 144.403C91.5835 144.281 91.2925 144.119 91.0595 143.918C90.8295 143.719 90.6465 143.506 90.5095 143.278L91.3115 142.716C91.4015 142.835 91.5175 142.972 91.6565 143.125C91.7955 143.281 91.9855 143.416 92.2275 143.53C92.4715 143.646 92.7915 143.705 93.1865 143.705C93.7145 143.705 94.1505 143.577 94.4945 143.321C94.8385 143.065 95.0095 142.665 95.0095 142.119V140.79H94.9245C94.8505 140.909 94.7455 141.057 94.6095 141.233C94.4755 141.406 94.2825 141.561 94.0295 141.697C93.7795 141.831 93.4415 141.898 93.0155 141.898C92.4875 141.898 92.0125 141.773 91.5925 141.523C91.1745 141.273 90.8435 140.909 90.5995 140.432C90.3575 139.955 90.2375 139.375 90.2375 138.693C90.2375 138.023 90.3555 137.439 90.5905 136.942C90.8265 136.442 91.1545 136.055 91.5755 135.783C91.9955 135.507 92.4815 135.369 93.0325 135.369C93.4585 135.369 93.7965 135.44 94.0465 135.582C94.2995 135.722 94.4925 135.881 94.6265 136.06C94.7625 136.236 94.8675 136.381 94.9415 136.494H95.0445V135.455H96.0155V142.188C96.0155 142.75 95.8875 143.207 95.6325 143.56C95.3795 143.915 95.0385 144.175 94.6095 144.339C94.1835 144.507 93.7085 144.591 93.1865 144.591ZM93.1515 140.994C93.5555 140.994 93.8965 140.902 94.1745 140.717C94.4535 140.533 94.6645 140.267 94.8095 139.92C94.9545 139.574 95.0265 139.159 95.0265 138.676C95.0265 138.205 94.9555 137.788 94.8135 137.428C94.6715 137.067 94.4615 136.784 94.1835 136.58C93.9045 136.375 93.5615 136.273 93.1515 136.273C92.7255 136.273 92.3705 136.381 92.0865 136.597C91.8055 136.812 91.5935 137.102 91.4515 137.466C91.3125 137.83 91.2425 138.233 91.2425 138.676C91.2425 139.131 91.3135 139.533 91.4555 139.882C91.6005 140.229 91.8135 140.501 92.0955 140.7C92.3795 140.896 92.7315 140.994 93.1515 140.994ZM98.8625 138.062V142H97.8565V133.273H98.8625V136.477H98.9475C99.1005 136.139 99.3305 135.871 99.6375 135.672C99.9475 135.47 100.359 135.369 100.873 135.369C101.319 135.369 101.71 135.459 102.045 135.638C102.38 135.814 102.64 136.085 102.825 136.452C103.012 136.815 103.106 137.278 103.106 137.841V142H102.1V137.909C102.1 137.389 101.965 136.987 101.695 136.703C101.428 136.416 101.058 136.273 100.583 136.273C100.254 136.273 99.9585 136.342 99.6975 136.482C99.4385 136.621 99.2345 136.824 99.0835 137.091C98.9365 137.358 98.8625 137.682 98.8625 138.062ZM107.792 135.455V136.307H104.4V135.455H107.792ZM105.389 133.886H106.395V140.125C106.395 140.409 106.436 140.622 106.518 140.764C106.604 140.903 106.711 140.997 106.842 141.045C106.976 141.091 107.116 141.114 107.264 141.114C107.375 141.114 107.466 141.108 107.537 141.097C107.608 141.082 107.665 141.071 107.707 141.062L107.912 141.966C107.844 141.991 107.748 142.017 107.626 142.043C107.504 142.071 107.349 142.085 107.162 142.085C106.878 142.085 106.599 142.024 106.327 141.902C106.057 141.78 105.832 141.594 105.653 141.344C105.477 141.094 105.389 140.778 105.389 140.398V133.886ZM113.824 136.92L112.921 137.176C112.864 137.026 112.78 136.879 112.67 136.737C112.562 136.592 112.414 136.473 112.226 136.379C112.039 136.286 111.799 136.239 111.506 136.239C111.106 136.239 110.772 136.331 110.505 136.516C110.241 136.697 110.108 136.929 110.108 137.21C110.108 137.46 110.199 137.658 110.381 137.803C110.563 137.947 110.847 138.068 111.233 138.165L112.205 138.403C112.79 138.545 113.226 138.763 113.513 139.055C113.8 139.345 113.944 139.719 113.944 140.176C113.944 140.551 113.836 140.886 113.62 141.182C113.407 141.477 113.108 141.71 112.725 141.881C112.341 142.051 111.895 142.136 111.387 142.136C110.719 142.136 110.167 141.991 109.729 141.702C109.292 141.412 109.015 140.989 108.898 140.432L109.853 140.193C109.944 140.545 110.116 140.81 110.368 140.986C110.624 141.162 110.958 141.25 111.37 141.25C111.839 141.25 112.211 141.151 112.486 140.952C112.765 140.75 112.904 140.509 112.904 140.227C112.904 140 112.824 139.81 112.665 139.656C112.506 139.5 112.262 139.384 111.932 139.307L110.841 139.051C110.242 138.909 109.802 138.689 109.52 138.391C109.242 138.089 109.103 137.713 109.103 137.261C109.103 136.892 109.206 136.565 109.414 136.281C109.624 135.997 109.91 135.774 110.27 135.612C110.634 135.45 111.046 135.369 111.506 135.369C112.154 135.369 112.662 135.511 113.032 135.795C113.404 136.08 113.668 136.455 113.824 136.92ZM120.316 142L118.321 135.455H119.378L120.793 140.466H120.861L122.259 135.455H123.333L124.713 140.449H124.781L126.196 135.455H127.253L125.259 142H124.27L122.838 136.972H122.736L121.304 142H120.316ZM128.583 142V135.455H129.588V142H128.583ZM129.094 134.364C128.898 134.364 128.729 134.297 128.587 134.163C128.448 134.03 128.378 133.869 128.378 133.682C128.378 133.494 128.448 133.334 128.587 133.2C128.729 133.067 128.898 133 129.094 133C129.29 133 129.458 133.067 129.597 133.2C129.739 133.334 129.81 133.494 129.81 133.682C129.81 133.869 129.739 134.03 129.597 134.163C129.458 134.297 129.29 134.364 129.094 134.364ZM134.277 135.455V136.307H130.885V135.455H134.277ZM131.873 133.886H132.879V140.125C132.879 140.409 132.92 140.622 133.003 140.764C133.088 140.903 133.196 140.997 133.327 141.045C133.46 141.091 133.601 141.114 133.748 141.114C133.859 141.114 133.95 141.108 134.021 141.097C134.092 141.082 134.149 141.071 134.192 141.062L134.396 141.966C134.328 141.991 134.233 142.017 134.111 142.043C133.988 142.071 133.834 142.085 133.646 142.085C133.362 142.085 133.084 142.024 132.811 141.902C132.541 141.78 132.317 141.594 132.138 141.344C131.961 141.094 131.873 140.778 131.873 140.398V133.886ZM136.936 138.062V142H135.93V133.273H136.936V136.477H137.021C137.175 136.139 137.405 135.871 137.711 135.672C138.021 135.47 138.433 135.369 138.947 135.369C139.393 135.369 139.784 135.459 140.119 135.638C140.454 135.814 140.714 136.085 140.899 136.452C141.086 136.815 141.18 137.278 141.18 137.841V142H140.175V137.909C140.175 137.389 140.04 136.987 139.77 136.703C139.503 136.416 139.132 136.273 138.657 136.273C138.328 136.273 138.032 136.342 137.771 136.482C137.513 136.621 137.308 136.824 137.157 137.091C137.01 137.358 136.936 137.682 136.936 138.062ZM147.043 144.455C146.872 144.455 146.72 144.44 146.587 144.412C146.453 144.386 146.361 144.361 146.31 144.335L146.566 143.449C146.81 143.511 147.026 143.534 147.213 143.517C147.401 143.5 147.567 143.416 147.712 143.266C147.86 143.118 147.994 142.878 148.117 142.545L148.304 142.034L145.884 135.455H146.975L148.781 140.67H148.85L150.656 135.455H151.747L148.969 142.955C148.844 143.293 148.689 143.572 148.504 143.794C148.32 144.018 148.105 144.185 147.861 144.293C147.619 144.401 147.347 144.455 147.043 144.455ZM155.499 142.136C154.909 142.136 154.39 141.996 153.944 141.714C153.501 141.433 153.154 141.04 152.904 140.534C152.657 140.028 152.534 139.437 152.534 138.761C152.534 138.08 152.657 137.484 152.904 136.976C153.154 136.467 153.501 136.072 153.944 135.791C154.39 135.51 154.909 135.369 155.499 135.369C156.09 135.369 156.607 135.51 157.051 135.791C157.497 136.072 157.843 136.467 158.09 136.976C158.34 137.484 158.465 138.08 158.465 138.761C158.465 139.437 158.34 140.028 158.09 140.534C157.843 141.04 157.497 141.433 157.051 141.714C156.607 141.996 156.09 142.136 155.499 142.136ZM155.499 141.233C155.948 141.233 156.318 141.118 156.607 140.888C156.897 140.658 157.112 140.355 157.251 139.98C157.39 139.605 157.46 139.199 157.46 138.761C157.46 138.324 157.39 137.916 157.251 137.538C157.112 137.161 156.897 136.855 156.607 136.622C156.318 136.389 155.948 136.273 155.499 136.273C155.051 136.273 154.681 136.389 154.392 136.622C154.102 136.855 153.887 137.161 153.748 137.538C153.609 137.916 153.539 138.324 153.539 138.761C153.539 139.199 153.609 139.605 153.748 139.98C153.887 140.355 154.102 140.658 154.392 140.888C154.681 141.118 155.051 141.233 155.499 141.233ZM164.126 139.324V135.455H165.131V142H164.126V140.892H164.057C163.904 141.224 163.665 141.507 163.341 141.74C163.018 141.97 162.608 142.085 162.114 142.085C161.705 142.085 161.341 141.996 161.023 141.817C160.705 141.635 160.455 141.362 160.273 140.999C160.091 140.632 160.001 140.17 160.001 139.614V135.455H161.006V139.545C161.006 140.023 161.14 140.403 161.407 140.688C161.677 140.972 162.02 141.114 162.438 141.114C162.688 141.114 162.942 141.05 163.201 140.922C163.462 140.794 163.681 140.598 163.857 140.334C164.036 140.07 164.126 139.733 164.126 139.324ZM166.973 142V135.455H167.945V136.443H168.013C168.132 136.119 168.348 135.857 168.661 135.655C168.973 135.453 169.325 135.352 169.718 135.352C169.791 135.352 169.884 135.354 169.994 135.357C170.105 135.359 170.189 135.364 170.246 135.369V136.392C170.212 136.384 170.134 136.371 170.012 136.354C169.892 136.334 169.766 136.324 169.632 136.324C169.314 136.324 169.03 136.391 168.78 136.524C168.533 136.655 168.337 136.837 168.192 137.07C168.05 137.3 167.979 137.562 167.979 137.858V142H166.973ZM86.2605 159.455V150.455H87.2325V151.494H87.3515C87.4255 151.381 87.5275 151.236 87.6585 151.06C87.7925 150.881 87.9825 150.722 88.2295 150.582C88.4795 150.44 88.8175 150.369 89.2435 150.369C89.7945 150.369 90.2805 150.507 90.7015 150.783C91.1215 151.058 91.4495 151.449 91.6855 151.955C91.9215 152.46 92.0395 153.057 92.0395 153.744C92.0395 154.438 91.9215 155.038 91.6855 155.547C91.4495 156.053 91.1235 156.445 90.7055 156.723C90.2875 156.999 89.8065 157.136 89.2605 157.136C88.8405 157.136 88.5035 157.067 88.2505 156.928C87.9985 156.786 87.8035 156.625 87.6675 156.446C87.5305 156.264 87.4255 156.114 87.3515 155.994H87.2665V159.455H86.2605ZM87.2495 153.727C87.2495 154.222 87.3215 154.658 87.4665 155.036C87.6115 155.411 87.8235 155.705 88.1015 155.918C88.3805 156.128 88.7215 156.233 89.1245 156.233C89.5445 156.233 89.8955 156.122 90.1765 155.901C90.4615 155.676 90.6745 155.375 90.8165 154.997C90.9615 154.616 91.0335 154.193 91.0335 153.727C91.0335 153.267 90.9625 152.852 90.8205 152.483C90.6815 152.111 90.4695 151.817 90.1855 151.601C89.9045 151.382 89.5505 151.273 89.1245 151.273C88.7155 151.273 88.3715 151.376 88.0935 151.584C87.8145 151.788 87.6045 152.075 87.4625 152.445C87.3205 152.811 87.2495 153.239 87.2495 153.727ZM96.3175 157.136C95.6865 157.136 95.1425 156.997 94.6855 156.719C94.2305 156.438 93.8805 156.045 93.6325 155.543C93.3885 155.037 93.2665 154.449 93.2665 153.778C93.2665 153.108 93.3885 152.517 93.6325 152.006C93.8805 151.491 94.2235 151.091 94.6645 150.804C95.1075 150.514 95.6245 150.369 96.2155 150.369C96.5565 150.369 96.8925 150.426 97.2255 150.54C97.5575 150.653 97.8605 150.838 98.1325 151.094C98.4055 151.347 98.6235 151.682 98.7845 152.099C98.9465 152.517 99.0275 153.031 99.0275 153.642V154.068H93.9825V153.199H98.0055C98.0055 152.83 97.9315 152.5 97.7835 152.21C97.6385 151.92 97.4315 151.692 97.1615 151.524C96.8945 151.357 96.5785 151.273 96.2155 151.273C95.8145 151.273 95.4685 151.372 95.1755 151.571C94.8855 151.767 94.6625 152.023 94.5065 152.338C94.3505 152.653 94.2725 152.991 94.2725 153.352V153.932C94.2725 154.426 94.3575 154.845 94.5275 155.189C94.7015 155.53 94.9415 155.79 95.2485 155.969C95.5545 156.145 95.9115 156.233 96.3175 156.233C96.5815 156.233 96.8205 156.196 97.0335 156.122C97.2495 156.045 97.4355 155.932 97.5915 155.781C97.7485 155.628 97.8685 155.437 97.9535 155.21L98.9255 155.483C98.8235 155.812 98.6515 156.102 98.4095 156.352C98.1685 156.599 97.8705 156.793 97.5155 156.932C97.1595 157.068 96.7605 157.136 96.3175 157.136ZM103.301 157.136C102.671 157.136 102.127 156.997 101.669 156.719C101.215 156.438 100.864 156.045 100.617 155.543C100.373 155.037 100.25 154.449 100.25 153.778C100.25 153.108 100.373 152.517 100.617 152.006C100.864 151.491 101.208 151.091 101.648 150.804C102.091 150.514 102.608 150.369 103.199 150.369C103.54 150.369 103.877 150.426 104.209 150.54C104.542 150.653 104.844 150.838 105.117 151.094C105.39 151.347 105.607 151.682 105.769 152.099C105.931 152.517 106.012 153.031 106.012 153.642V154.068H100.966V153.199H104.989C104.989 152.83 104.915 152.5 104.767 152.21C104.623 151.92 104.415 151.692 104.145 151.524C103.878 151.357 103.563 151.273 103.199 151.273C102.799 151.273 102.452 151.372 102.159 151.571C101.87 151.767 101.647 152.023 101.49 152.338C101.334 152.653 101.256 152.991 101.256 153.352V153.932C101.256 154.426 101.341 154.845 101.512 155.189C101.685 155.53 101.925 155.79 102.232 155.969C102.539 156.145 102.895 156.233 103.301 156.233C103.566 156.233 103.804 156.196 104.017 156.122C104.233 156.045 104.419 155.932 104.576 155.781C104.732 155.628 104.853 155.437 104.938 155.21L105.909 155.483C105.807 155.812 105.635 156.102 105.394 156.352C105.152 156.599 104.854 156.793 104.499 156.932C104.144 157.068 103.745 157.136 103.301 157.136ZM107.542 157V150.455H108.513V151.443H108.581C108.701 151.119 108.917 150.857 109.229 150.655C109.542 150.453 109.894 150.352 110.286 150.352C110.36 150.352 110.452 150.354 110.563 150.357C110.674 150.359 110.757 150.364 110.814 150.369V151.392C110.78 151.384 110.702 151.371 110.58 151.354C110.461 151.334 110.334 151.324 110.201 151.324C109.882 151.324 109.598 151.391 109.348 151.524C109.101 151.655 108.905 151.837 108.76 152.07C108.618 152.3 108.547 152.562 108.547 152.858V157H107.542ZM116.643 151.92L115.739 152.176C115.683 152.026 115.599 151.879 115.488 151.737C115.38 151.592 115.232 151.473 115.045 151.379C114.857 151.286 114.617 151.239 114.325 151.239C113.924 151.239 113.59 151.331 113.323 151.516C113.059 151.697 112.927 151.929 112.927 152.21C112.927 152.46 113.018 152.658 113.2 152.803C113.381 152.947 113.665 153.068 114.052 153.165L115.023 153.403C115.609 153.545 116.045 153.763 116.332 154.055C116.619 154.345 116.762 154.719 116.762 155.176C116.762 155.551 116.654 155.886 116.438 156.182C116.225 156.477 115.927 156.71 115.543 156.881C115.16 157.051 114.714 157.136 114.205 157.136C113.538 157.136 112.985 156.991 112.548 156.702C112.11 156.412 111.833 155.989 111.717 155.432L112.671 155.193C112.762 155.545 112.934 155.81 113.187 155.986C113.442 156.162 113.776 156.25 114.188 156.25C114.657 156.25 115.029 156.151 115.305 155.952C115.583 155.75 115.722 155.509 115.722 155.227C115.722 155 115.643 154.81 115.484 154.656C115.325 154.5 115.08 154.384 114.751 154.307L113.66 154.051C113.06 153.909 112.62 153.689 112.339 153.391C112.06 153.089 111.921 152.713 111.921 152.261C111.921 151.892 112.025 151.565 112.232 151.281C112.442 150.997 112.728 150.774 113.089 150.612C113.452 150.45 113.864 150.369 114.325 150.369C114.972 150.369 115.481 150.511 115.85 150.795C116.222 151.08 116.487 151.455 116.643 151.92ZM119.009 157.068C118.799 157.068 118.618 156.993 118.468 156.842C118.317 156.692 118.242 156.511 118.242 156.301C118.242 156.091 118.317 155.911 118.468 155.76C118.618 155.609 118.799 155.534 119.009 155.534C119.219 155.534 119.4 155.609 119.55 155.76C119.701 155.911 119.776 156.091 119.776 156.301C119.776 156.44 119.74 156.568 119.669 156.685C119.601 156.801 119.509 156.895 119.392 156.966C119.279 157.034 119.151 157.068 119.009 157.068Z" fill="#787486"/>
<defs>
<filter id="filter0_f_693_175" x="69" y="0" width="67" height="67" filterUnits="userSpaceOnUse" color-interpolation-filters="sRGB">
<feFlood flood-opacity="0" result="BackgroundImageFix"/>
<feBlend mode="normal" in="SourceGraphic" in2="BackgroundImageFix" result="shape"/>
<feGaussianBlur stdDeviation="8.5" result="effect1_foregroundBlur_693_175"/>
</filter>
</defs>
</svg>
