<svg width="18" height="22" viewBox="0 0 18 22" fill="none" xmlns="http://www.w3.org/2000/svg">
<path d="M9.02056 1.91016C5.71056 1.91016 3.02056 4.60016 3.02056 7.91016V10.8002C3.02056 11.4102 2.76049 12.3402 2.45049 12.8602L1.30059 14.7701C0.590586 15.9501 1.08054 17.2601 2.38054 17.7001C6.69054 19.1401 11.3406 19.1401 15.6506 17.7001C16.8606 17.3001 17.3905 15.8701 16.7305 14.7701L15.5805 12.8602C15.2805 12.3402 15.0206 11.4102 15.0206 10.8002V7.91016C15.0206 4.61016 12.3206 1.91016 9.02056 1.91016Z" stroke="#787486" stroke-width="1.5" stroke-miterlimit="10" stroke-linecap="round"/>
<path d="M10.8699 2.19994C10.5599 2.10994 10.2399 2.03994 9.90991 1.99994C8.94991 1.87994 8.02992 1.94994 7.16992 2.19994C7.45992 1.45994 8.1799 0.939941 9.0199 0.939941C9.8599 0.939941 10.5799 1.45994 10.8699 2.19994Z" stroke="#787486" stroke-width="1.5" stroke-miterlimit="10" stroke-linecap="round" stroke-linejoin="round"/>
<path d="M12.0195 18.0601C12.0195 19.7101 10.6695 21.0601 9.01953 21.0601C8.19953 21.0601 7.43954 20.7201 6.89954 20.1801C6.35954 19.6401 6.01953 18.8801 6.01953 18.0601" stroke="#787486" stroke-width="1.5" stroke-miterlimit="10"/>
</svg>
