<svg width="15" height="16" viewBox="0 0 15 16" fill="none" xmlns="http://www.w3.org/2000/svg">
<path d="M13.5001 15.2252C13.3421 15.2252 13.1832 15.1669 13.0582 15.0419L7.62514 9.60855C6.74214 8.72525 6.74214 7.27525 7.62514 6.39195L13.0582 0.958544C13.3002 0.716944 13.7001 0.716944 13.9421 0.958544C14.1831 1.20024 14.1831 1.60024 13.9421 1.84194L8.50814 7.27525C8.10814 7.67525 8.10814 8.32524 8.50814 8.72524L13.9421 14.1585C14.1831 14.4002 14.1831 14.8002 13.9421 15.0419C13.8171 15.1585 13.6581 15.2252 13.5001 15.2252Z" fill="#787486"/>
<path d="M7.50014 15.2252C7.34214 15.2252 7.18315 15.1669 7.05815 15.0419L1.62514 9.60855C0.742141 8.72525 0.742141 7.27525 1.62514 6.39195L7.05815 0.958544C7.30015 0.716944 7.70013 0.716944 7.94213 0.958544C8.18313 1.20024 8.18313 1.60024 7.94213 1.84194L2.50814 7.27525C2.10814 7.67525 2.10814 8.32524 2.50814 8.72524L7.94213 14.1585C8.18313 14.4002 8.18313 14.8002 7.94213 15.0419C7.81713 15.1585 7.65814 15.2252 7.50014 15.2252Z" fill="#787486"/>
</svg>
